<?xml version="1.0" encoding="utf-8"?>
<!DOCTYPE svg PUBLIC "-//W3C//DTD SVG 1.1//EN" "http://www.w3.org/Graphics/SVG/1.1/DTD/svg11.dtd">
<svg version="1.1" id="Calque_1" xmlns="http://www.w3.org/2000/svg" xmlns:xlink="http://www.w3.org/1999/xlink" x="0px" y="0px"
	 width="970.003px" height="499.791px" viewBox="0 0 970.003 499.791" enable-background="new 0 0 970.003 499.791"
	 xml:space="preserve">
<g id="lignesnew" fill="none" stroke="#A6A8AB" stroke-width="8" stroke-linecap="round" stroke-linejoin="round" stroke-miterlimit="3">
	
		<polyline points="120.002,368.398 120.003,356.833 130.002,351.053 140.002,356.836 140.001,379.959 160.002,391.517 170.002,385.74 
		180.002,391.517 180.002,403.078 190.002,408.861 200.002,403.082 210.002,408.861 210.002,420.421 220.002,426.199 
		220.002,437.763 230.002,443.541 240.003,437.766 240.003,426.202 230.002,420.424 230.002,408.861 220.002,403.082 
		220.001,379.959 220.002,356.83 210.002,351.051 210.002,339.488 200.002,333.712 200.002,322.149 180.002,310.59 160.001,299.028 
		160.001,287.466 150.001,281.687 150.002,270.127 140.001,264.344 140.002,241.22 120.002,252.786 120.002,264.345 
		110.002,270.124 110.002,281.689 120.002,287.469 120.002,299.028 100.002,310.59 80.002,322.152 80.002,333.715 70.003,339.49 
		70.003,351.054 60.002,356.836 60.002,368.398 70.003,374.178 80.002,368.398 90.003,374.175 100.002,368.398 110.002,374.178 
		120.002,368.398 130.002,374.178 150.002,374.178 160.001,368.398 170.002,374.175 180.002,368.398 190.002,374.178 
		200.002,368.398 210.002,374.178 230.002,385.737 240.002,391.514 250.003,385.74 260.002,391.514 270.002,385.737 280.002,391.52 
		290.002,385.737 300.003,385.737 300.002,403.078 310.003,408.861 310.002,420.424 320.002,426.203 320.001,437.76 
		330.002,443.545 340.003,443.545 340.002,426.203 330.003,420.421 330.002,408.861 340.003,403.078 340.003,391.517 
		350.003,385.737 350.003,374.175 340.003,368.396 340.003,356.833 330.003,351.054 330.002,339.495 340.002,333.712 
		340.003,310.59 360.002,299.031 360.002,287.469 370.002,281.689 370.002,270.124 380.002,264.345 380.002,241.22 400.002,229.661 
		400.002,218.099 410.002,212.319 410.002,200.76 420.002,194.975 420.002,171.858 400.002,183.418 390.002,177.638 
		380.002,183.421 380.002,194.983 370.002,200.759 370.002,212.321 360.002,218.102 350.002,212.322 340.002,218.104 
		330.002,212.324 320.002,218.104 320.002,229.664 300.001,241.22 280.001,252.781 270.002,247.006 260.001,252.779 250.001,247 
		240.001,252.779 230.001,247 220.002,241.22 200.002,229.664 190.001,235.438 180.001,229.658 170.001,235.438 160.001,229.658 
		150.001,235.44 140.001,235.444 140.002,218.102 150.002,212.322 150.002,200.76 160.002,194.98 160.002,183.418 170.002,177.639 
		180.002,183.418 190.002,177.639 190.002,166.077 200.002,160.295"/>
		<polyline points="240.003,437.766 260.003,449.323 260.002,426.199 250.002,420.421 250.002,408.861 260.003,403.082 260.002,391.514 
		270.002,385.737 270.002,374.175 280.001,368.396 290.002,374.178"/>
		<polyline points="260.003,403.082 270.002,408.855 280.002,403.082 290.002,408.855 290.002,420.418 300.002,426.203 300.002,437.766 
		310.002,443.538 320.001,437.76"/>
		<polyline points="270.002,443.546 280.002,437.766 290.003,443.541 300.002,437.766"/>
		<polyline points="280.002,437.766 280.002,426.203 290.002,420.418 290.002,408.855 300.002,403.078"/>
		<polyline points="300.003,377.069 300.002,356.836 310.002,351.054 310.002,339.495 320.002,333.712 320.002,322.149 340.003,310.59 
		340.001,287.466 330.001,281.691 330.001,270.129 340.001,264.354 340.002,252.786 350.001,247.008 360.001,252.788 
		380.002,241.22"/>
		<polyline points="330.001,270.129 320.001,264.345 320.001,252.781 300.001,241.22 300.002,218.102 290.002,212.322 280.002,218.102 
		270.002,212.322 270.002,200.76 260.003,194.98 260.002,183.418"/>
		<polyline points="260.003,194.98 250.002,200.76 250.002,212.322 240.002,218.103 240.002,229.664 220.002,241.22 200.002,252.786 200.002,264.345 
		190.001,270.127 190.001,281.689 180.002,287.469 180.002,310.59 180.002,333.712 170.002,339.495 170.002,351.057 
		180.002,356.836 180.002,368.398"/>
		<polyline points="170.002,351.057 160.002,356.836 160.001,368.398"/>
		<polyline points="160.002,356.836 150.002,351.057 150.002,339.494 140.002,333.711 140.002,322.148 150.002,316.373 160.002,322.149 
		180.002,310.59 200.002,299.031 210.002,304.808 220.002,299.031 230.002,304.811 240.002,299.028 260.001,310.587 
		280.001,299.027 280.002,287.469 290.002,281.689 290.001,270.121 300.001,264.342 300.001,241.22"/>
		<polyline points="290.002,281.689 300.001,287.475 310.002,281.692 320.002,287.469 330.001,281.691"/>
		<polyline points="290.001,304.81 300.001,299.025 300.001,287.475"/>
		<polyline points="300.001,299.025 310.002,304.811 320.002,299.031 340.003,310.59"/>
		<polyline points="310.002,304.811 310.002,316.367 300.002,322.146 300.002,333.715 290.002,339.495 290.002,351.057 300.002,356.836"/>
		<polyline points="280.001,368.396 280.002,356.836 270.002,351.057 270.001,339.492"/>
		<polyline points="270.002,374.175 260.002,368.396 260.002,356.833 250.002,351.054 250.002,339.49 260.001,333.711"/>
		<polyline points="250.002,339.49 240.002,333.715 240.002,322.152 250.001,316.37"/>
		<polyline points="230.002,374.178 240.002,368.398 240.002,356.836 230.002,351.057 230.002,339.495 240.002,333.715"/>
		<polyline points="210.002,339.488 220.002,333.709 230.002,339.495"/>
		<polyline points="220.002,333.709 220.002,322.146 210.002,316.373 200.002,322.149"/>
		<polyline points="220.002,322.146 230.002,316.367 230.002,304.811"/>
		<polyline points="220.002,299.031 220.001,287.469 210.002,281.684 200.001,287.469 190.001,281.689 190.001,270.127 180.002,264.348 
		180.001,252.785 170.002,247.006 160.002,252.786 140.002,241.22 140.001,264.344 130.002,270.127 130.002,281.686 
		140.002,287.469 140.002,299.027 150.002,304.811 150.002,316.373 140.002,322.148 130.002,316.373 120.003,322.152 
		100.002,310.59 100.002,333.715 110.002,339.495 110.003,351.054 120.003,356.833 130.002,351.053 130.002,339.495 
		140.002,333.711"/>
		<polyline points="80.002,368.398 80.002,356.836 90.002,351.057 100.002,356.836 110.003,351.054"/>
		<polyline points="210.002,281.684 210.002,270.127 220.002,264.348 220.001,252.781"/>
		<polyline points="220.002,264.348 230.002,270.124 230.002,281.687 240.002,287.469 240.002,299.028"/>
		<polyline points="260.001,252.779 260.001,264.342 270.002,270.127 280.002,264.348 290.001,270.121"/>
		<polyline points="250.002,212.322 260.002,218.102 260.003,229.664 270.002,235.443 270.002,247.006"/>
		<polyline points="340.003,125.611 350.002,131.393 350.002,142.955 360.002,148.734 370.002,142.955 380.002,148.734 390.002,142.955 
		400.002,148.734 400.002,160.297 420.002,171.858"/>
		<polyline points="260.001,264.342 250.002,270.127 250.003,281.689 260.003,287.469 260.001,310.587"/>
		<polyline points="260.003,287.469 270.002,281.689 280.002,287.469"/>
		<polyline points="640.001,368.398 640.002,356.833 650.001,351.053 660.001,356.836 660,379.959 680.001,391.517 690.001,385.74 700.001,391.517 
		700.001,403.078 710.001,408.861 720.001,403.082 730.001,408.861 730.001,420.421 740.001,426.199 740.001,437.763 
		750.001,443.541 760.002,437.766 760.002,426.202 750.001,420.424 750.001,408.861 740.001,403.082 740,379.959 740.001,356.83 
		730.001,351.051 730.001,339.488 720.001,333.712 720.001,322.149 700.001,310.59 680,299.028 680,287.466 670,281.687 
		670.001,270.127 660,264.344 660.001,241.22 640.001,252.786 640.001,264.345 630.001,270.124 630.001,281.689 640.001,287.469 
		640.001,299.028 620.001,310.59 600.001,322.152 600.001,333.715 590.002,339.49 590.002,351.054 580.001,356.836 580.001,368.398 
		590.002,374.178 600.001,368.398 610.002,374.175 620.001,368.398 630.001,374.178 640.001,368.398 650.001,374.178 
		670.001,374.178 680,368.398 690.001,374.175 700.001,368.398 710.001,374.178 720.001,368.398 730.001,374.178 750.001,385.737 
		760.001,391.514 770.002,385.74 780.001,391.514 790.001,385.737 800.001,391.52 810.001,385.737 820.001,385.737 820.001,403.078 
		830.002,408.861 830.001,420.424 840.001,426.203 840,437.76 850.001,443.545 860.002,443.545 860.001,426.203 850.002,420.421 
		850.001,408.861 860.002,403.078 860.002,391.517 870.002,385.737 870.002,374.175 860.002,368.396 860.002,356.833 
		850.002,351.054 850.001,339.495 860.001,333.712 860.002,310.59 880.001,299.031 880.001,287.469 890.001,281.689 
		890.001,270.124 900.001,264.345 900.001,241.22 920.001,229.661 920.001,218.099 930.001,212.319 930.001,200.76 940.001,194.975 
		940.001,171.858 920.001,183.418 910.001,177.638 900.001,183.421 900.001,194.983 890.001,200.759 890.001,212.321 
		880.001,218.102 870.001,212.322 860.001,218.104 850.001,212.324 840.001,218.104 840.001,229.664 820,241.22 800,252.781 
		790.001,247.006 780,252.779 770,247 760,252.779 750,247 740.001,241.22 720.001,229.664 710,235.438 700,229.658 690,235.438 
		680,229.658 670,235.44"/>
		<polyline points="760.002,437.766 780.002,449.323 780.001,426.199 770.001,420.421 770.001,408.861 780.002,403.082 780.001,391.514 
		790.001,385.737 790.001,374.175 800,368.396 810.001,374.178"/>
		<polyline points="780.002,403.082 790.001,408.855 800.001,403.082 810.001,408.855 810.001,420.418 820.001,426.203 820.001,437.766 
		830.001,443.538 840,437.76"/>
		<polyline points="790.001,443.546 800.001,437.766 810.002,443.541 820.001,437.766"/>
		<polyline points="800.001,437.766 800.001,426.203 810.001,420.418 810.001,408.855 820.001,403.078"/>
		<polyline points="820.001,377.069 820.001,356.836 830.001,351.054 830.001,339.495 840.001,333.712 840.001,322.149 860.002,310.59 860,287.466 
		850,281.691 850,270.129 860,264.354 860.001,252.786 870,247.008 880,252.788 900.001,241.22"/>
		<polyline points="850,270.129 840,264.345 840,252.781 820,241.22 820.001,218.102 810.001,212.322 800.001,218.102 790.001,212.322 790.001,200.76 
		780.002,194.98 780.001,183.418"/>
		<polyline points="780.002,194.98 770.001,200.76 770.001,212.322 760.001,218.103 760.001,229.664 740.001,241.22 720.001,252.786 720.001,264.345 
		710,270.127 710,281.689 700.001,287.469 700.001,310.59 700.001,333.712 690.001,339.495 690.001,351.057 700.001,356.836 
		700.001,368.398"/>
		<polyline points="690.001,351.057 680.001,356.836 680,368.398"/>
		<polyline points="680.001,356.836 670.001,351.057 670.001,339.494 660.001,333.711 660.001,322.148 670.001,316.373 680.001,322.149 
		700.001,310.59 720.001,299.031 730.001,304.808 740.001,299.031 750.001,304.811 760.001,299.028 780,310.587 800,299.027 
		800.001,287.469 810.001,281.689 810,270.121 820,264.342 820,241.22"/>
		<polyline points="810.001,281.689 820,287.475 830.001,281.692 840.001,287.469 850,281.691"/>
		<polyline points="820,287.475 820,299.025 810,304.81 800,299.027"/>
		<polyline points="820,299.025 830.001,304.811 840.001,299.031 860.002,310.59"/>
		<polyline points="830.001,304.811 830.001,316.367 820.001,322.146 820.001,333.715 810.001,339.495 810.001,351.057 820.001,356.836"/>
		<polyline points="800,368.396 800.001,356.836 790.001,351.057 790,339.492 780,333.711"/>
		<polyline points="790.001,374.175 780.001,368.396 780.001,356.833 770.001,351.054 770.001,339.49 780,333.711 780,310.587 780.002,287.469 
		770.002,281.689 770.001,270.127 780,264.342"/>
		<polyline points="770.001,339.49 760.001,333.715 760.001,322.152 770,316.37"/>
		<polyline points="750.001,374.178 760.001,368.398 760.001,356.836 750.001,351.057 750.001,339.495 760.001,333.715"/>
		<polyline points="730.001,339.488 740.001,333.709 750.001,339.495"/>
		<polyline points="740.001,333.709 740.001,322.146 730.001,316.373 720.001,322.149"/>
		<polyline points="740.001,322.146 750.001,316.367 750.001,304.811"/>
		<polyline points="740.001,299.031 740,287.469 730.001,281.684 720,287.469 710,281.689 710,270.127 700.001,264.348 700,252.785 690.001,247.006 
		680.001,252.786 660.001,241.22 660,264.344 650.001,270.127 650.001,281.686 660.001,287.469 660.001,299.027 670.001,304.811 
		670.001,316.373 660.001,322.148 650.001,316.373 640.002,322.152 620.001,310.59 620.001,333.715 630.001,339.495 
		630.002,351.054 640.002,356.833 650.001,351.053 650.001,339.495 660.001,333.711"/>
		<polyline points="600.001,368.398 600.001,356.836 610.001,351.057 620.001,356.836 630.002,351.054"/>
		<polyline points="730.001,281.684 730.001,270.127 740.001,264.348 740,252.781"/>
		<polyline points="740.001,264.348 750.001,270.124 750.001,281.687 760.001,287.469 760.001,299.028"/>
		<polyline points="780,252.779 780,264.342 790.001,270.127 800.001,264.348 810,270.121"/>
		<polyline points="770.001,212.322 780.001,218.102 780.002,229.664 790.001,235.443 790.001,247.006"/>
		<polyline points="780.002,287.469 790.001,281.689 800.001,287.469"/>
		<polyline points="900.001,183.421 890.002,177.639 890.002,166.077 880.002,160.297 870.002,166.077 860.002,160.297 850.002,166.077 
		850.002,177.639 840.002,183.418 830.002,177.639 820.002,183.418 810.002,177.639 810.002,166.077 800.002,160.297 
		790.002,166.079"/>
		<polyline points="680,229.658 680.002,218.102 690.002,212.322 700.002,218.102 710.002,212.322 720.002,218.102 730.002,212.322 730.002,200.76 
		740.002,194.98 740.002,183.418 750.002,177.639 760.002,183.418 770.002,177.639"/>
</g>
<g id="départ" fill="none" stroke="#E2E2E2" stroke-width="8" stroke-linecap="round" stroke-linejoin="round" stroke-miterlimit="3">
		<line x1="940.002" y1="160.297" x2="940.002" y2="148.734"/>
		<line x1="950.002" y1="166.079" x2="960.002" y2="160.297"/>
		<line x1="950.002" y1="177.639" x2="960.002" y2="183.418"/>
		<line x1="908.053" y1="247" x2="920.002" y2="252.786"/>
		<line x1="870.002" y1="316.37" x2="880.002" y2="322.152"/>
		<line x1="870.002" y1="443.545" x2="880.002" y2="437.766"/>
		<line x1="880.002" y1="472.448" x2="890.002" y2="478.231"/>
		<line x1="870.002" y1="478.229" x2="870.002" y2="489.791"/>
		<line x1="780.003" y1="460.886" x2="780.003" y2="472.448"/>
		<line x1="770.002" y1="455.105" x2="760.002" y2="460.887"/>
		<line x1="590.001" y1="385.74" x2="600" y2="391.52"/>
		<line x1="570.002" y1="385.74" x2="560.001" y2="391.52"/>
		<line x1="570.002" y1="374.178" x2="560.001" y2="368.398"/>
		<line x1="610.002" y1="304.808" x2="600.002" y2="299.031"/>
		<line x1="650.001" y1="235.44" x2="640.002" y2="229.664"/>
		<line x1="780.002" y1="160.297" x2="780.002" y2="148.734"/>
		<line x1="770.002" y1="166.079" x2="760.002" y2="160.297"/>
		<line x1="660.002" y1="229.664" x2="660.002" y2="218.102"/>
		<line x1="670.001" y1="408.86" x2="670.002" y2="420.424"/>
		<line x1="650.002" y1="408.861" x2="650.002" y2="420.424"/>
		<line x1="640.002" y1="403.082" x2="630.002" y2="408.861"/>
		<line x1="630.001" y1="385.737" x2="620.002" y2="391.52"/>
		<line x1="850.001" y1="455.104" x2="840.002" y2="460.887"/>
		<line x1="880.001" y1="460.886" x2="890.002" y2="455.107"/>
		<line x1="830.002" y1="374.178" x2="840.002" y2="368.398"/>
		<line x1="830.002" y1="385.74" x2="840.002" y2="391.52"/>
		<line x1="740" y1="229.658" x2="740.002" y2="218.102"/>
		<line x1="730.001" y1="385.737" x2="720.002" y2="391.52"/>
		<line x1="420.002" y1="160.297" x2="420.002" y2="148.734"/>
		<line x1="430.002" y1="166.079" x2="440.002" y2="160.297"/>
		<line x1="430.002" y1="177.639" x2="440.002" y2="183.418"/>
		<line x1="388.053" y1="247" x2="400.002" y2="252.786"/>
		<line x1="350.002" y1="316.37" x2="360.002" y2="322.152"/>
		<line x1="350.002" y1="443.545" x2="360.002" y2="437.766"/>
		<line x1="350.002" y1="455.107" x2="360.002" y2="460.89"/>
		<line x1="340.002" y1="460.886" x2="340.002" y2="472.448"/>
		<line x1="260.003" y1="460.886" x2="260.003" y2="472.448"/>
		<line x1="250.002" y1="455.105" x2="240.002" y2="460.887"/>
		<line x1="80.002" y1="403.082" x2="90.001" y2="408.861"/>
		<line x1="20.002" y1="403.082" x2="10.001" y2="408.861"/>
		<line x1="30.003" y1="374.178" x2="20.002" y2="368.398"/>
		<line x1="90.002" y1="304.808" x2="80.002" y2="299.031"/>
		<line x1="130.001" y1="235.44" x2="120.002" y2="229.664"/>
		<line x1="140.001" y1="391.519" x2="140.002" y2="403.082"/>
		<line x1="330.001" y1="455.104" x2="320.002" y2="460.887"/>
		<line x1="310.002" y1="374.178" x2="320.002" y2="368.398"/>
		<line x1="310.002" y1="385.74" x2="320.002" y2="391.52"/>
		<line x1="220.002" y1="235.44" x2="220.002" y2="218.102"/>
		<line x1="210.001" y1="385.737" x2="200.002" y2="391.52"/>
		<line x1="60.002" y1="426.203" x2="60.002" y2="437.766"/>
		<line x1="180.002" y1="125.611" x2="170.002" y2="131.393"/>
		<line x1="180.002" y1="79.366" x2="170.002" y2="73.588"/>
		<line x1="260.002" y1="21.561" x2="260.003" y2="10"/>
		<line x1="290.002" y1="27.343" x2="300.002" y2="21.562"/>
		<line x1="230.002" y1="27.342" x2="220.002" y2="21.562"/>
		<line x1="340.002" y1="79.366" x2="350.002" y2="73.588"/>
		<line x1="200.002" y1="44.684" x2="190.002" y2="38.904"/>
		<line x1="320.002" y1="44.684" x2="330.002" y2="38.904"/>
		<line x1="190.002" y1="142.953" x2="180.002" y2="148.734"/>
		<line x1="320.002" y1="160.297" x2="330.002" y2="166.077"/>
	<path d="M392.721,431.985"/>
</g>
<g id="serveur" fill="#FFFFFF" stroke="#1C1C1C" stroke-width="8" stroke-linecap="round" stroke-linejoin="round" stroke-miterlimit="3">
	
		<rect x="290.002" y="374.178" width="20" height="11.56"/>
		<rect x="130.001" y="235.44" width="20" height="11.56"/>
		<rect x="170.002" y="304.811" width="20" height="11.56"/>
		<rect x="90.002" y="304.808" width="20" height="11.56"/>
		<polygon points="330.002,443.545 340.002,437.763 350.002,443.545 350.002,455.104 340.002,460.886 330.002,455.104"/>
		<rect x="130.002" y="374.178" width="20" height="11.56"/>
		<rect x="210.002" y="374.178" width="20" height="11.56"/>
		<rect x="250.002" y="443.546" width="20" height="11.56"/>
		<rect x="330.002" y="304.811" width="20" height="11.56"/>
		<rect x="210.001" y="235.44" width="20" height="11.56"/>
		<rect x="290.002" y="235.44" width="20" height="11.56"/>
		<rect x="370.002" y="235.44" width="20" height="11.56"/>
		<polygon points="410.002,166.079 420.002,160.297 430.002,166.079 430.002,177.639 420.002,183.42 410.002,177.639"/>
		<polygon points="250.001,304.811 260.001,299.028 270.001,304.811 270.001,316.37 260.001,322.151 250.001,316.37"/>
		<polygon points="260.001,322.151 270.001,316.369 280.001,322.151 280.001,333.711 270.001,339.492 260.001,333.711"/>
		<polygon points="270.001,304.81 280.001,299.027 290.001,304.81 290.001,316.369 280.001,322.15 270.001,316.369"/>
	<g>
		
			<polygon points="250.002,96.709 260.002,90.928 270.002,96.709 270.002,108.27 260.002,114.052 250.002,108.27"/>
			<polygon points="270.002,96.709 280.002,90.928 290.002,96.709 290.002,108.27 280.002,114.052 270.002,108.27"/>
			<polygon points="290.002,96.709 300.002,90.928 310.002,96.709 310.002,108.27 300.002,114.052 290.002,108.27"/>
			<polygon points="310.002,96.709 320.002,90.928 330.002,96.709 330.002,108.27 320.002,114.052 310.002,108.27"/>
			<polygon points="190.002,96.709 200.002,90.928 210.002,96.709 210.002,108.27 200.002,114.052 190.002,108.27"/>
			<polygon points="210.002,96.709 220.002,90.928 230.002,96.709 230.002,108.27 220.002,114.052 210.002,108.27"/>
			<polygon points="230.002,96.709 240.002,90.928 250.002,96.709 250.002,108.27 240.002,114.052 230.002,108.27"/>
			<polygon points="260.002,114.052 270.002,108.27 280.002,114.052 280.002,125.611 270.002,131.393 260.002,125.611"/>
			<polygon points="280.002,114.052 290.002,108.27 300.002,114.052 300.002,125.611 290.002,131.393 280.002,125.611"/>
			<polygon points="300.002,114.052 310.002,108.27 320.002,114.052 320.002,125.611 310.002,131.393 300.002,125.611"/>
			<polygon points="200.002,114.052 210.002,108.27 220.002,114.052 220.002,125.611 210.002,131.393 200.002,125.611"/>
			<polygon points="220.002,114.052 230.002,108.27 240.002,114.052 240.002,125.611 230.002,131.393 220.002,125.611"/>
			<polygon points="240.002,114.052 250.002,108.27 260.002,114.052 260.002,125.611 250.002,131.393 240.002,125.611"/>
			<polygon points="250.002,131.393 260.002,125.611 270.002,131.393 270.002,142.953 260.002,148.734 250.002,142.953"/>
			<polygon points="270.002,131.393 280.002,125.611 290.002,131.393 290.002,142.953 280.002,148.734 270.002,142.953"/>
			<polygon points="290.002,131.393 300.002,125.611 310.002,131.393 310.002,142.953 300.002,148.734 290.002,142.953"/>
			<polygon points="310.002,131.393 320.002,125.611 330.002,131.393 330.002,142.953 320.002,148.734 310.002,142.953"/>
			<polygon points="320.002,114.052 330.003,108.27 340.003,114.052 340.003,125.611 330.003,131.393 320.002,125.611"/>
			<polygon points="320.002,79.366 330.002,73.586 340.002,79.366 340.002,90.928 330.002,96.709 320.002,90.928"/>
			<polygon points="180.002,114.052 190.002,108.27 200.002,114.052 200.002,125.611 190.002,131.393 180.002,125.611"/>
			<polygon points="180.001,79.366 190.002,73.586 200.002,79.366 200.002,90.928 190.002,96.709 180.001,90.928"/>
			<polygon points="190.002,131.393 200.002,125.611 210.002,131.393 210.002,142.953 200.002,148.734 190.002,142.953"/>
			<polygon points="210.002,131.393 220.002,125.611 230.002,131.393 230.002,142.953 220.002,148.734 210.002,142.953"/>
			<polygon points="230.002,131.393 240.002,125.611 250.002,131.393 250.002,142.953 240.002,148.734 230.002,142.953"/>
			<polygon points="260.002,148.734 270.002,142.953 280.002,148.734 280.002,160.295 270.002,166.076 260.002,160.295"/>
			<polygon points="280.002,148.734 290.002,142.953 300.002,148.734 300.002,160.295 290.002,166.076 280.002,160.295"/>
			<polygon points="300.002,148.734 310.002,142.953 320.002,148.734 320.002,160.295 310.002,166.076 300.002,160.295"/>
			<polygon points="200.002,148.734 210.002,142.953 220.002,148.734 220.002,160.295 210.002,166.076 200.002,160.295"/>
			<polygon points="220.002,148.734 230.002,142.953 240.002,148.734 240.002,160.295 230.002,166.076 220.002,160.295"/>
			<polygon points="240.002,148.734 250.002,142.953 260.002,148.734 260.002,160.295 250.002,166.076 240.002,160.295"/>
			<polygon points="250.002,166.076 260.002,160.295 270.002,166.076 270.002,177.637 260.002,183.418 250.002,177.637"/>
			<polygon points="270.002,166.076 280.002,160.295 290.002,166.076 290.002,177.637 280.002,183.418 270.002,177.637"/>
			<polygon points="230.002,166.076 240.002,160.295 250.002,166.076 250.002,177.637 240.002,183.418 230.002,177.637"/>
			<polygon points="260.002,90.928 270.002,96.709 280.002,90.928 280.002,79.366 270.002,73.586 260.002,79.366"/>
			<polygon points="280.002,90.928 290.002,96.709 300.002,90.928 300.002,79.366 290.002,73.586 280.002,79.366"/>
			<polygon points="300.002,90.928 310.002,96.709 320.002,90.928 320.002,79.366 310.002,73.586 300.002,79.366"/>
			<polygon points="200.002,90.928 210.002,96.709 220.002,90.928 220.002,79.366 210.002,73.586 200.002,79.366"/>
			<polygon points="220.002,90.928 230.002,96.709 240.002,90.928 240.002,79.366 230.002,73.586 220.002,79.366"/>
			<polygon points="240.002,90.928 250.002,96.709 260.002,90.928 260.002,79.366 250.002,73.586 240.002,79.366"/>
			<polygon points="250.002,73.586 260.002,79.366 270.002,73.586 270.002,62.025 260.002,56.244 250.002,62.025"/>
			<polygon points="270.002,73.586 280.002,79.366 290.002,73.586 290.002,62.025 280.002,56.244 270.002,62.025"/>
			<polygon points="290.002,73.586 300.002,79.366 310.002,73.586 310.002,62.025 300.002,56.244 290.002,62.025"/>
			<polygon points="310.002,73.586 320.002,79.366 330.002,73.586 330.002,62.025 320.002,56.244 310.002,62.025"/>
			<polygon points="190.002,73.586 200.002,79.366 210.002,73.586 210.002,62.025 200.002,56.244 190.002,62.025"/>
			<polygon points="210.002,73.586 220.002,79.366 230.002,73.586 230.002,62.025 220.002,56.244 210.002,62.025"/>
			<polygon points="230.002,73.586 240.002,79.366 250.002,73.586 250.002,62.025 240.002,56.244 230.002,62.025"/>
			<polygon points="260.002,56.244 270.002,62.025 280.002,56.244 280.002,44.684 270.002,38.902 260.002,44.684"/>
			<polygon points="280.002,56.244 290.002,62.025 300.002,56.244 300.002,44.684 290.002,38.902 280.002,44.684"/>
			<polygon points="300.002,56.244 310.002,62.025 320.002,56.244 320.002,44.684 310.002,38.902 300.002,44.684"/>
			<polygon points="200.002,56.244 210.002,62.025 220.002,56.244 220.002,44.684 210.002,38.902 200.002,44.684"/>
			<polygon points="220.002,56.244 230.002,62.025 240.002,56.244 240.002,44.684 230.002,38.902 220.002,44.684"/>
			<polygon points="240.002,56.244 250.002,62.025 260.002,56.244 260.002,44.684 250.002,38.902 240.002,44.684"/>
			<polygon points="250.002,38.902 260.002,44.684 270.002,38.902 270.002,27.343 260.002,21.561 250.002,27.343"/>
			<polygon points="270.002,38.902 280.002,44.684 290.002,38.902 290.002,27.343 280.002,21.561 270.002,27.343"/>
			<polygon points="230.002,38.902 240.002,44.684 250.002,38.902 250.002,27.343 240.002,21.561 230.002,27.343"/>
	</g>
	<g>
		
			<polygon points="40.003,391.52 50.003,385.74 60.003,391.52 60.003,403.082 50.003,408.861 40.003,403.082"/>
			<polygon points="50.003,408.861 60.003,403.082 70.003,408.861 70.003,420.424 60.003,426.202 50.003,420.424"/>
			<polygon points="30.003,374.178 40.003,368.398 50.003,374.178 50.003,385.74 40.003,391.52 30.003,385.74"/>
			<polygon points="50.003,374.178 60.003,368.398 70.003,374.178 70.003,385.74 60.003,391.52 50.003,385.74"/>
			<polygon points="30.003,408.861 40.003,403.082 50.003,408.861 50.003,420.424 40.003,426.202 30.003,420.424"/>
			<polygon points="60.003,391.52 70.003,385.74 80.003,391.52 80.003,403.082 70.003,408.861 60.003,403.082"/>
			<polygon points="20.003,391.52 30.003,385.74 40.003,391.52 40.003,403.082 30.003,408.861 20.003,403.082"/>
	</g>
	
		<polygon points="810.001,374.178 820.001,368.396 830.001,374.178 830.001,385.737 820.001,391.519 810.001,385.737"/>
		<polygon points="650,235.44 660,229.658 670,235.44 670,247 660,252.781 650,247"/>
		<polygon points="690.001,304.811 700.001,299.028 710.001,304.811 710.001,316.37 700.001,322.151 690.001,316.37"/>
		<polygon points="610.001,304.808 620.001,299.025 630.001,304.808 630.001,316.367 620.001,322.148 610.001,316.367"/>
		<polygon points="850.001,443.545 860.001,437.763 870.001,443.545 870.001,455.104 860.001,460.886 850.001,455.104"/>
		<polygon points="650.001,374.178 660.001,368.396 670.001,374.178 670.001,385.737 660.001,391.519 650.001,385.737"/>
		<polygon points="730.001,374.178 740.001,368.396 750.001,374.178 750.001,385.737 740.001,391.519 730.001,385.737"/>
		<polygon points="770.001,443.546 780.001,437.764 790.001,443.546 790.001,455.105 780.001,460.887 770.001,455.105"/>
		<polygon points="850.001,304.811 860.001,299.028 870.001,304.811 870.001,316.37 860.001,322.151 850.001,316.37"/>
		<polygon points="730,235.44 740,229.658 750,235.44 750,247 740,252.781 730,247"/>
		<polygon points="770.002,166.079 780.002,160.297 790.002,166.079 790.002,177.639 780.002,183.42 770.002,177.639"/>
		<polygon points="810.001,235.44 820.001,229.658 830.001,235.44 830.001,247 820.001,252.781 810.001,247"/>
		<polygon points="890.001,235.44 900.001,229.658 910.001,235.44 910.001,247 900.001,252.781 890.001,247"/>
		<polygon points="930.001,166.079 940.001,160.297 950.001,166.079 950.001,177.639 940.001,183.42 930.001,177.639"/>
		<polygon points="770,304.811 780,299.028 790,304.811 790,316.37 780,322.151 770,316.37"/>
		<polygon points="820.001,252.781 830.001,246.999 840.001,252.781 840.001,264.341 830.001,270.122 820.001,264.341"/>
		<polygon points="860.001,460.886 870.001,455.104 880.001,460.886 880.001,472.445 870.001,478.227 860.001,472.445"/>
		<polygon points="570.001,374.181 580.001,368.398 590.001,374.181 590.001,385.74 580.001,391.521 570.001,385.74"/>
		<polygon points="660.001,391.52 670.001,385.737 680.001,391.52 680.001,403.078 670.001,408.86 660.001,403.078"/>
		<polygon points="630.001,374.178 640.001,368.396 650.001,374.178 650.001,385.737 640.001,391.519 630.001,385.737"/>
		<polygon points="640.001,391.52 650.001,385.737 660.001,391.52 660.001,403.078 650.001,408.86 640.001,403.078"/>
		<polygon points="830.001,235.439 840.001,229.656 850.001,235.439 850.001,246.999 840.001,252.78 830.001,246.999"/>
</g>
<g id="chemin" fill="none" stroke="#0000FF" stroke-width="8" stroke-linecap="round" stroke-linejoin="round" stroke-miterlimit="3">
	
		<polyline points="180.002,304.811 180.002,287.469 190.001,281.689 190.001,270.127 200.002,264.345 200.002,252.786 240.002,229.664 
		240.002,218.103 250.002,212.322 250.002,200.76 260.003,194.98 260.002,183.418 250.002,177.637 250.002,166.076 260.002,160.295 
		260.002,148.734 250.002,142.953 250.002,131.393 240.002,125.611"/>
		<polyline points="290.002,374.178 280.001,368.396 280.002,356.836 270.002,351.057 270.001,339.492 260.001,333.711 260.001,322.151 
		270.001,316.369 270.001,304.81 260.001,299.028 260.003,287.469 250.003,281.689 250.002,270.127 260.001,264.342 
		260.001,252.779 270.002,247.006 270.002,235.443 260.003,229.664 260.002,218.102 250.002,212.322 250.002,200.76 260.003,194.98 
		260.002,183.418 250.002,177.637 250.002,166.076 260.002,160.295 260.002,148.734 250.002,142.953 250.002,131.393 
		240.002,125.611"/>
		<polyline points="710.001,316.37 720.001,322.149 720.001,333.712 730.001,339.488 740.001,333.709 750.001,339.495 760.001,333.715 770.001,339.49 
		770.001,351.054 780.001,356.833 780.001,368.396 790.001,374.175 800,368.396 810.001,374.178"/>
</g>
</svg>
