<?xml version="1.0" encoding="utf-8"?>
<!DOCTYPE svg PUBLIC "-//W3C//DTD SVG 1.1//EN" "http://www.w3.org/Graphics/SVG/1.1/DTD/svg11.dtd">
<svg version="1.1" id="titreevent" xmlns="http://www.w3.org/2000/svg" xmlns:xlink="http://www.w3.org/1999/xlink" x="0px" y="0px"
	 width="528px" height="208px" viewBox="0 0 528 208" enable-background="new 0 0 528 208" xml:space="preserve">
<g>
	
	<g style="visibility:hidden;">
	<rect id="rect" x="424" fill="#EDEDED" width="56" height="112"/>
	<animate href="#rect" attributeName="visibility" attributType="CSS" values="hidden;visible;hidden" keyTimes="0;0.3;1" repeatCount="indefinite" begin="0s" dur="1.5s" />
	</g>
	
	<g fill="none" stroke="#1C1C1C" stroke-width="8" stroke-linecap="round" stroke-linejoin="round">
		<polyline points="412,20 396,20 396,28 388,28 388,36 380,36 380,76 388,76 388,84 396,84 396,92 412,92"/>
		<polyline points="492,20 508,20 508,28 516,28 516,36 524,36 524,76 516,76 516,84 508,84 508,92 492,92"/>
		<g>
			<polyline points="44,84 44,68 52,60 52,44 60,36 60,28 68,28 76,36 76,84"/>
			<polyline points="76,68 60,68 60,60 52,60"/>
		</g>
		<polyline points="156,60 164,60 172,68 180,68 188,60 188,52 180,52 180,44 164,44 164,52 156,52 156,76 164,84 180,84"/>
		<polyline points="435.112,180 443.112,180 451.112,188 459.112,188 467.112,180 467.112,172 459.112,172 459.112,164 443.112,164 443.112,172 435.112,172 
			435.112,196 443.112,204 459.112,204"/>
		<polyline points="264.445,180 272.446,180 280.446,188 288.446,188 296.446,180 296.446,172 288.446,172 288.446,164 272.446,164 272.446,172 264.445,172 
			264.445,196 272.446,204 288.446,204"/>
		<g>
			<polygon points="28,204 12,204 12,196 4,196 4,172 12,172 12,164 28,164 36,172 36,196"/>
			<polyline points="28,164 36,156 36,148"/>
		</g>
		<g>
			<line x1="284" y1="28" x2="284" y2="36"/>
			<polyline points="284,52 284,76 276,84 268,84"/>
			<polyline points="284,76 292,84 300,84"/>
			<line x1="276" y1="60" x2="292" y2="60"/>
		</g>
		<g>
			<line x1="109.779" y1="148" x2="109.779" y2="156"/>
			<polyline points="109.779,172 109.779,196 101.779,204 93.779,204"/>
			<polyline points="109.779,196 117.779,204 125.779,204"/>
			<line x1="101.779" y1="180" x2="117.779" y2="180"/>
		</g>
		<g>
			<polyline points="212,84 212,60 228,44 236,44 244.001,52 244.001,84"/>
			<line x1="220" y1="52" x2="212" y2="44"/>
		</g>
		<g>
			<polyline points="378.223,204 378.223,180 394.223,164 402.223,164 410.223,172 410.223,204"/>
			<line x1="386.223" y1="172" x2="378.223" y2="164"/>
		</g>
		<g>
			<polyline points="150.667,204 150.667,180 166.667,164 174.667,164 182.667,172 182.667,204"/>
			<line x1="158.667" y1="172" x2="150.667" y2="164"/>
		</g>
		<polyline points="332,84 332,60 324,52 340,52 340,44 348,44 356,52"/>
		<polyline points="329.334,204 329.334,180 321.334,172 337.334,172 337.334,164 345.334,164 353.334,172"/>
		<polyline points="436,76 444,76 444,84 460,84 468,76 452,60 444,60 444,52 452,44 460,44"/>
		<polyline points="100,52 100,60 108,68 108,76 116,84 124,76 124,60 132,52 132,44"/>
		<polyline points="60.889,148 60.889,156 68.889,156 68.889,164"/>
		<g>
			<g>
				<polyline points="215.556,148 215.556,164 223.556,164 223.556,180 215.556,180 215.556,196 223.556,204 231.556,204 239.556,196"/>
				<line x1="223.556" y1="172" x2="231.556" y2="172"/>
			</g>
			<polyline points="215.556,164 207.556,172 215.556,180"/>
		</g>
		<g>
			<g>
				<polyline points="500,148 500,164 508,164 508,180 500,180 500,196 508,204 516,204 524,196"/>
				<line x1="508" y1="172" x2="516" y2="172"/>
			</g>
			<polyline points="500,164 492,172 500,180"/>
		</g>
	</g>
</g>
</svg>
