<?xml version="1.0" encoding="utf-8"?>
<!DOCTYPE svg PUBLIC "-//W3C//DTD SVG 1.1//EN" "http://www.w3.org/Graphics/SVG/1.1/DTD/svg11.dtd">
<svg version="1.1" id="Calque_1" xmlns="http://www.w3.org/2000/svg" xmlns:xlink="http://www.w3.org/1999/xlink" x="0px" y="0px"
	 width="450px" height="250px" viewBox="0 0 450 250" enable-background="new 0 0 450 250" xml:space="preserve">
<g>
	<g>
		<path fill="#B1B3B4" d="M118.358,119.238c0-5.901-4.812-10.707-10.714-10.707c-5.913,0-10.719,4.806-10.719,10.707
			c0,5.913,4.806,10.725,10.719,10.725C113.546,129.963,118.358,125.151,118.358,119.238z"/>
		<path fill="#B1B3B4" d="M118.505,75.925c3.117,0,5.657-2.546,5.657-5.67c0-3.118-2.54-5.67-5.657-5.67
			c-3.13,0-5.66,2.552-5.66,5.67C112.845,73.379,115.375,75.925,118.505,75.925z"/>
		<path fill="#B1B3B4" d="M117.417,80.456c-0.775-0.082-1.521-0.258-2.235-0.504l-5.36,24.155c0.768,0.11,1.521,0.265,2.248,0.485
			L117.417,80.456z"/>
		<path fill="#B1B3B4" d="M128.964,146.422c-1.116,0-2.179,0.229-3.144,0.641l-9.302-15.368c-0.621,0.444-1.275,0.842-1.961,1.19
			l9.306,15.369c-1.79,1.476-2.931,3.711-2.931,6.207c0,4.434,3.592,8.038,8.031,8.038c4.436,0,8.033-3.604,8.033-8.038
			C136.997,150.031,133.399,146.422,128.964,146.422z M128.964,160.2c-3.166,0-5.739-2.573-5.739-5.739
			c0-1.665,0.718-3.163,1.854-4.214c0.561-0.516,1.221-0.922,1.951-1.185c0.605-0.218,1.254-0.343,1.934-0.343
			c3.162,0,5.74,2.578,5.74,5.741C134.704,157.627,132.126,160.2,128.964,160.2z"/>
		<path fill="#B1B3B4" d="M43.868,102.412c0-4.439-3.608-8.037-8.043-8.037c-4.434,0-8.037,3.598-8.037,8.037
			c0,4.43,3.604,8.032,8.037,8.032c3.399,0,6.307-2.12,7.482-5.104l49.228,11.545c0.119-0.767,0.279-1.52,0.509-2.245
			l-49.211-11.532C43.853,102.878,43.868,102.646,43.868,102.412z M35.825,108.147c-3.172,0-5.739-2.573-5.739-5.735
			c0-3.172,2.567-5.75,5.739-5.75c3.168,0,5.735,2.578,5.735,5.75C41.561,105.574,38.993,108.147,35.825,108.147z"/>
		<path fill="#B1B3B4" d="M189.31,92.524c-2.976,0-5.853,0.418-8.584,1.183c-3.127,1.624-5.925,3.626-8.351,6.052
			c-2.979,2.982-5.346,6.485-7.109,10.503c-1.765,4.02-2.65,8.297-2.65,12.812c0,4.526,0.886,8.794,2.65,12.819
			c1.764,4.023,4.131,7.519,7.109,10.491c2.973,2.979,6.475,5.356,10.498,7.116c2.907,1.278,5.941,2.084,9.106,2.437
			c16.293-1.356,29.104-14.994,29.104-31.644C221.083,106.744,206.853,92.524,189.31,92.524z"/>
	</g>
	<g>
		<path fill="#040710" d="M118.505,80.516c5.653,0,10.249-4.601,10.249-10.261c0-5.652-4.596-10.255-10.249-10.255
			c-5.654,0-10.263,4.603-10.263,10.255C108.242,75.915,112.851,80.516,118.505,80.516z M118.505,64.585
			c3.117,0,5.657,2.552,5.657,5.67c0,3.124-2.54,5.67-5.657,5.67c-3.13,0-5.66-2.546-5.66-5.67
			C112.845,67.137,115.375,64.585,118.505,64.585z"/>
		<path fill="#040710" d="M128.964,160.2c3.162,0,5.74-2.573,5.74-5.739c0-3.163-2.578-5.741-5.74-5.741
			c-3.166,0-5.739,2.578-5.739,5.741C123.225,157.627,125.798,160.2,128.964,160.2z"/>
		<path fill="#040710" d="M35.825,96.662c-3.172,0-5.739,2.578-5.739,5.75c0,3.162,2.567,5.735,5.739,5.735
			c3.168,0,5.735-2.573,5.735-5.735C41.561,99.24,38.993,96.662,35.825,96.662z"/>
		<path fill="#040710" d="M321.348,123.073h8.271c0-5.724-1.105-11.134-3.307-16.193c-2.212-5.076-5.212-9.457-9.009-13.152
			c-3.809-3.695-8.184-6.619-13.152-8.767c-4.958-2.143-10.25-3.227-15.876-3.227c-5.839,0-11.265,1.084-16.283,3.227
			c-5.016,2.147-9.369,5.071-13.059,8.767c-3.695,3.695-6.614,8.076-8.762,13.152c-2.146,5.06-3.221,10.47-3.221,16.193v41.346h8.26
			v-41.346c0-4.515,0.89-8.792,2.644-12.812c1.769-4.018,4.142-7.521,7.109-10.503c2.979-2.973,6.475-5.342,10.503-7.109
			c4.021-1.754,8.304-2.646,12.809-2.646c4.526,0,8.798,0.892,12.817,2.646c4.029,1.768,7.53,4.137,10.503,7.109
			c2.972,2.982,5.346,6.485,7.104,10.503C320.469,114.281,321.348,118.559,321.348,123.073z"/>
		<path fill="#040710" d="M418.899,107.197c-2.201-4.951-5.206-9.338-9.004-13.141c-3.809-3.803-8.193-6.803-13.146-9.01
			c-4.964-2.206-10.256-3.312-15.882-3.312c-5.838,0-11.271,1.106-16.282,3.312c-5.011,2.207-9.364,5.207-13.06,9.01
			c-3.696,3.803-6.609,8.189-8.762,13.141c-2.152,4.969-3.227,10.255-3.227,15.876v41.346h8.271v-41.346
			c0-4.515,0.873-8.792,2.637-12.812c1.771-4.018,4.132-7.521,7.111-10.503c2.982-2.973,6.479-5.342,10.503-7.109
			c4.024-1.754,8.298-2.646,12.808-2.646c4.525,0,8.798,0.892,12.827,2.646c4.015,1.768,7.515,4.137,10.498,7.109
			c2.973,2.982,5.347,6.485,7.099,10.503c1.77,4.02,2.655,8.297,2.655,12.812v41.346h8.265v-41.346
			C422.212,117.452,421.105,112.166,418.899,107.197z"/>
		<path fill="#040710" d="M96.062,175.11c-0.771-0.766-1.694-1.386-2.752-1.829c-2.135-0.911-4.721-0.899-6.792,0
			c-1.045,0.443-1.963,1.063-2.74,1.829c-0.766,0.772-1.381,1.699-1.828,2.752c-0.448,1.057-0.68,2.206-0.68,3.393
			c0,1.219,0.231,2.357,0.68,3.41c0.447,1.046,1.062,1.958,1.834,2.729c0.771,0.771,1.689,1.392,2.734,1.834
			c1.047,0.442,2.186,0.674,3.404,0.674c1.377,0,2.703-0.322,3.917-0.954c0.7-0.356,1.343-0.793,1.897-1.3v2.254h2.833v-8.647
			c0-1.197-0.221-2.336-0.668-3.393C97.453,176.81,96.833,175.883,96.062,175.11z M95.274,183.499
			c-0.312,0.713-0.734,1.338-1.252,1.856c-0.518,0.518-1.148,0.944-1.854,1.257c-1.403,0.609-3.091,0.609-4.494,0
			c-0.707-0.312-1.327-0.739-1.855-1.257c-0.513-0.523-0.939-1.144-1.252-1.856c-0.308-0.706-0.458-1.456-0.458-2.244
			c0-0.792,0.15-1.548,0.458-2.244c0.312-0.712,0.739-1.333,1.252-1.855c0.528-0.523,1.148-0.943,1.855-1.257
			c0.701-0.308,1.462-0.459,2.249-0.459s1.549,0.151,2.245,0.459c0.706,0.313,1.337,0.733,1.854,1.257
			c0.518,0.522,0.939,1.144,1.252,1.855c0.309,0.696,0.463,1.452,0.463,2.244C95.737,182.043,95.583,182.793,95.274,183.499z"/>
		<rect x="99.272" y="169.716" fill="#040710" width="2.837" height="20.187"/>
		<path fill="#040710" d="M105.913,172.985c-0.62,0.259-1.17,0.61-1.63,1.062c-0.468,0.448-0.829,0.982-1.089,1.586
			c-0.248,0.6-0.384,1.24-0.384,1.921c0,0.686,0.136,1.338,0.384,1.958c0.26,0.62,0.621,1.166,1.084,1.629
			c0.454,0.459,0.998,0.825,1.613,1.105c0.62,0.28,1.306,0.428,2.033,0.428h7.24c0.577,0,1.062,0.193,1.494,0.587
			c0.415,0.389,0.62,0.896,0.62,1.532c0,0.647-0.216,1.192-0.647,1.624c-0.421,0.442-0.906,0.652-1.467,0.652h-12.354v2.832h12.354
			c0.679,0,1.343-0.14,1.941-0.425c0.583-0.276,1.111-0.647,1.565-1.112c0.447-0.459,0.798-1.003,1.063-1.624
			c0.242-0.619,0.376-1.272,0.376-1.947c0-0.685-0.134-1.332-0.388-1.931c-0.254-0.594-0.604-1.123-1.062-1.575
			c-0.449-0.447-0.982-0.814-1.576-1.063c-0.593-0.253-1.246-0.389-1.92-0.389h-7.24c-0.652,0-1.182-0.216-1.624-0.657
			c-0.437-0.442-0.657-0.965-0.657-1.624c0-0.642,0.21-1.139,0.631-1.521c0.442-0.4,0.987-0.595,1.65-0.595h12.187v-2.831h-12.187
			C107.213,172.608,106.522,172.732,105.913,172.985z"/>
		<path fill="#040710" d="M135.599,175.11c-0.765-0.766-1.692-1.386-2.745-1.829c-1.052-0.453-2.19-0.673-3.383-0.673
			c-1.213,0-2.367,0.22-3.409,0.673c-1.047,0.448-1.963,1.063-2.74,1.829c-0.766,0.772-1.387,1.699-1.824,2.752
			c-0.451,1.057-0.678,2.206-0.678,3.393c0,1.219,0.231,2.357,0.678,3.41c0.438,1.046,1.059,1.958,1.824,2.729
			c0.777,0.771,1.693,1.392,2.74,1.834c1.042,0.442,2.196,0.674,3.409,0.674c1.382,0,2.698-0.322,3.906-0.954
			c0.712-0.356,1.344-0.793,1.909-1.3v2.254h2.839v-8.647c0-1.197-0.239-2.336-0.686-3.393
			C136.997,176.81,136.376,175.883,135.599,175.11z M134.823,183.499c-0.314,0.713-0.734,1.338-1.252,1.856
			c-0.528,0.518-1.148,0.944-1.856,1.257c-1.401,0.609-3.101,0.609-4.493,0c-0.717-0.312-1.333-0.739-1.852-1.257
			c-0.527-0.523-0.947-1.144-1.257-1.856c-0.307-0.706-0.463-1.456-0.463-2.244c0-0.792,0.156-1.548,0.463-2.244
			c0.31-0.712,0.729-1.333,1.257-1.855c0.519-0.523,1.135-0.943,1.852-1.257c0.701-0.308,1.462-0.459,2.249-0.459
			c0.783,0,1.538,0.151,2.244,0.459c0.708,0.313,1.328,0.733,1.856,1.257c0.518,0.522,0.938,1.144,1.252,1.855
			c0.302,0.696,0.463,1.452,0.463,2.244C135.286,182.043,135.125,182.793,134.823,183.499z"/>
		<path fill="#040710" d="M143.372,177.155c0.525-0.523,1.145-0.943,1.852-1.257c1.311-0.572,2.914-0.604,4.187-0.134
			c0.604,0.231,1.154,0.533,1.65,0.921c0.496,0.395,0.923,0.848,1.284,1.388c0.367,0.534,0.627,1.122,0.805,1.736l0.123,0.453h2.831
			l-0.15-0.744c-0.21-0.982-0.581-1.91-1.117-2.758c-0.522-0.824-1.159-1.559-1.897-2.18c-0.734-0.619-1.57-1.115-2.514-1.461
			c-0.928-0.339-1.922-0.512-2.952-0.512c-1.213,0-2.356,0.22-3.408,0.673c-1.048,0.448-1.96,1.063-2.736,1.829
			c-0.771,0.772-1.386,1.699-1.833,2.752c-0.447,1.062-0.674,2.206-0.674,3.393c0,1.219,0.227,2.357,0.679,3.41
			c0.442,1.046,1.062,1.958,1.828,2.729c0.776,0.771,1.688,1.387,2.736,1.834c1.052,0.442,2.195,0.674,3.408,0.674
			c1.03,0,2.024-0.178,2.952-0.519c0.938-0.345,1.779-0.84,2.514-1.461c0.738-0.614,1.375-1.343,1.897-2.174
			c0.536-0.852,0.907-1.774,1.117-2.762l0.15-0.74h-2.831l-0.123,0.443c-0.178,0.62-0.438,1.203-0.805,1.737
			c-0.352,0.534-0.788,1.003-1.284,1.396c-0.496,0.379-1.046,0.69-1.65,0.912c-1.258,0.475-2.865,0.454-4.187-0.124
			c-0.707-0.308-1.321-0.734-1.852-1.257c-0.522-0.523-0.947-1.144-1.25-1.856c-0.313-0.706-0.47-1.456-0.47-2.244
			c0-0.792,0.156-1.548,0.47-2.244C142.425,178.299,142.85,177.678,143.372,177.155z"/>
		<path fill="#040710" d="M171.458,175.11c-0.771-0.766-1.7-1.381-2.746-1.829c-1.062-0.453-2.207-0.673-3.393-0.673
			c-1.22,0-2.369,0.22-3.41,0.673c-1.046,0.443-1.958,1.063-2.735,1.829c-0.766,0.772-1.386,1.694-1.833,2.752
			c-0.449,1.062-0.67,2.206-0.67,3.393c0,1.219,0.221,2.357,0.675,3.41c0.447,1.046,1.062,1.963,1.828,2.729
			c0.772,0.771,1.689,1.387,2.735,1.834c1.052,0.448,2.19,0.674,3.41,0.674c0.932,0,1.865-0.155,2.745-0.469
			c0.858-0.308,1.668-0.724,2.385-1.258c0.723-0.522,1.358-1.164,1.899-1.893c0.538-0.729,0.961-1.543,1.262-2.416l0.286-0.815
			h-3.047l-0.158,0.388c-0.442,1.106-1.148,1.991-2.087,2.65c-0.954,0.662-2.028,0.98-3.285,0.98c-0.739,0-1.436-0.129-2.078-0.388
			c-0.646-0.265-1.251-0.626-1.77-1.074c-0.518-0.436-0.954-0.971-1.289-1.586c-0.231-0.426-0.414-0.874-0.539-1.348h14.322v-1.42
			c0-1.187-0.227-2.33-0.675-3.393C172.85,176.81,172.229,175.883,171.458,175.11z M159.644,179.836
			c0.13-0.463,0.313-0.911,0.539-1.337c0.335-0.621,0.767-1.16,1.283-1.602c0.524-0.448,1.129-0.804,1.775-1.068
			c1.263-0.508,2.8-0.534,4.127,0c0.664,0.265,1.274,0.62,1.797,1.068c0.512,0.441,0.945,0.98,1.284,1.607
			c0.231,0.425,0.415,0.868,0.54,1.331H159.644z"/>
		<path fill="#040710" d="M205.461,175.105c-0.788-0.761-1.705-1.376-2.74-1.824c-1.036-0.453-2.153-0.673-3.33-0.673
			c-1.213,0-2.357,0.22-3.409,0.673c-1.036,0.443-1.953,1.063-2.729,1.829c-0.766,0.772-1.386,1.699-1.828,2.752
			c-0.454,1.057-0.68,2.195-0.68,3.393v8.647h2.838v-8.647c0-0.792,0.15-1.553,0.458-2.244c0.307-0.712,0.733-1.333,1.252-1.855
			c0.529-0.523,1.148-0.943,1.859-1.257c1.404-0.621,3.086-0.621,4.49,0c0.711,0.313,1.327,0.733,1.85,1.257
			c0.522,0.522,0.944,1.144,1.257,1.855c0.307,0.696,0.459,1.452,0.459,2.244v0.616h2.837v-0.616c0-1.187-0.231-2.336-0.695-3.399
			C206.896,176.805,206.259,175.878,205.461,175.105z"/>
		<path fill="#040710" d="M223.543,175.11c-0.771-0.766-1.705-1.381-2.751-1.829c-0.733-0.317-1.5-0.518-2.304-0.613l2.438-2.438
			l-1.983-1.997l-3.146,3.151l1.224,1.23c-1.073,0.042-2.093,0.258-3.031,0.667c-1.036,0.443-1.959,1.063-2.729,1.829
			c-0.771,0.772-1.386,1.699-1.835,2.752c-0.447,1.062-0.674,2.206-0.674,3.393c0,1.219,0.227,2.357,0.674,3.41
			c0.449,1.046,1.063,1.963,1.835,2.729c0.771,0.771,1.689,1.387,2.724,1.834c1.052,0.448,2.201,0.674,3.409,0.674
			c0.955,0,1.878-0.155,2.753-0.469c0.867-0.312,1.671-0.733,2.383-1.258c0.729-0.522,1.365-1.164,1.906-1.893
			c0.533-0.734,0.959-1.549,1.261-2.416l0.276-0.815h-3.039l-0.15,0.388c-0.447,1.106-1.154,1.991-2.104,2.65
			c-0.95,0.662-2.027,0.98-3.286,0.98c-0.722,0-1.423-0.129-2.065-0.388c-0.647-0.265-1.246-0.626-1.775-1.074
			c-0.518-0.436-0.949-0.971-1.288-1.586c-0.233-0.426-0.411-0.874-0.546-1.348h14.328v-1.42c0-1.187-0.226-2.33-0.675-3.393
			C224.929,176.81,224.31,175.883,223.543,175.11z M211.733,179.836c0.126-0.463,0.304-0.911,0.53-1.337
			c0.339-0.621,0.771-1.16,1.288-1.602c0.529-0.448,1.128-0.804,1.775-1.068c1.262-0.508,2.794-0.534,4.133,0
			c0.658,0.265,1.257,0.62,1.785,1.068c0.518,0.441,0.955,0.98,1.29,1.602c0.226,0.431,0.404,0.874,0.533,1.337H211.733z"/>
		<path fill="#040710" d="M229.85,172.985c-0.614,0.259-1.16,0.61-1.624,1.062c-0.474,0.448-0.83,0.982-1.09,1.586
			c-0.254,0.594-0.379,1.24-0.379,1.921c0,0.686,0.125,1.338,0.379,1.958c0.26,0.62,0.616,1.166,1.085,1.629
			c0.447,0.459,0.999,0.825,1.606,1.105c0.621,0.28,1.311,0.428,2.035,0.428h7.239c0.577,0,1.062,0.193,1.5,0.587
			c0.415,0.389,0.62,0.896,0.62,1.532c0,0.647-0.211,1.182-0.647,1.624c-0.427,0.442-0.907,0.652-1.473,0.652h-12.345v2.832h12.345
			c0.679,0,1.344-0.14,1.942-0.425c0.592-0.276,1.116-0.647,1.563-1.112c0.448-0.459,0.804-1.008,1.063-1.624
			c0.253-0.619,0.388-1.277,0.388-1.947c0-0.68-0.135-1.332-0.395-1.931c-0.253-0.594-0.608-1.123-1.061-1.575
			c-0.454-0.447-0.982-0.814-1.577-1.063c-0.603-0.253-1.246-0.389-1.925-0.389h-7.239c-0.653,0-1.182-0.216-1.62-0.657
			c-0.441-0.442-0.651-0.965-0.651-1.624c0-0.642,0.205-1.139,0.637-1.521c0.437-0.4,0.971-0.595,1.635-0.595h12.196v-2.831h-12.196
			C231.144,172.608,230.459,172.732,229.85,172.985z"/>
		<path fill="#040710" d="M259.553,175.11c-0.778-0.766-1.704-1.381-2.752-1.829c-1.057-0.453-2.2-0.673-3.393-0.673
			c-1.214,0-2.362,0.22-3.405,0.673c-1.041,0.443-1.958,1.063-2.728,1.829c-0.772,0.772-1.389,1.699-1.835,2.752
			c-0.453,1.062-0.686,2.206-0.686,3.393c0,1.219,0.232,2.357,0.686,3.41c0.446,1.046,1.062,1.958,1.835,2.729
			c0.77,0.771,1.682,1.392,2.728,1.834c1.043,0.448,2.191,0.674,3.405,0.674c0.944,0,1.867-0.155,2.745-0.469
			c0.863-0.308,1.667-0.724,2.396-1.258c0.718-0.522,1.354-1.164,1.894-1.893c0.539-0.734,0.966-1.549,1.262-2.416l0.276-0.815
			h-3.043l-0.152,0.388c-0.452,1.106-1.148,1.991-2.091,2.65c-0.945,0.646-2.045,0.98-3.286,0.98c-0.729,0-1.43-0.129-2.077-0.388
			c-0.653-0.265-1.246-0.626-1.769-1.074c-0.524-0.436-0.956-0.971-1.296-1.586c-0.222-0.426-0.404-0.874-0.533-1.348h14.327v-1.42
			c0-1.187-0.226-2.33-0.679-3.393C260.939,176.81,260.323,175.883,259.553,175.11z M247.738,179.836
			c0.129-0.463,0.312-0.906,0.528-1.337c0.34-0.621,0.771-1.16,1.296-1.602c0.522-0.448,1.115-0.804,1.769-1.068
			c1.268-0.508,2.8-0.534,4.127,0c0.669,0.265,1.278,0.62,1.79,1.068c0.524,0.441,0.961,0.98,1.301,1.602
			c0.216,0.426,0.395,0.874,0.528,1.337H247.738z"/>
		<path fill="#040710" d="M277.56,175.11c-0.776-0.766-1.709-1.386-2.75-1.829c-1.069-0.453-2.207-0.673-3.399-0.673
			c-1.214,0-2.358,0.22-3.409,0.673c-1.047,0.443-1.959,1.063-2.73,1.829c-0.766,0.772-1.381,1.699-1.828,2.752
			c-0.453,1.062-0.68,2.206-0.68,3.393c0,1.219,0.227,2.357,0.68,3.41c0.442,1.041,1.062,1.958,1.828,2.729
			c0.771,0.771,1.684,1.392,2.73,1.834c1.051,0.442,2.195,0.674,3.409,0.674c1.387,0,2.703-0.322,3.916-0.954
			c0.707-0.356,1.337-0.793,1.904-1.3v2.254h2.832v-8.647c0-1.197-0.226-2.336-0.674-3.393
			C278.94,176.81,278.331,175.883,277.56,175.11z M276.767,183.499c-0.312,0.713-0.733,1.338-1.257,1.856
			c-0.522,0.518-1.144,0.944-1.85,1.257c-1.398,0.609-3.098,0.609-4.499,0c-0.702-0.312-1.328-0.739-1.852-1.257
			c-0.518-0.519-0.943-1.144-1.251-1.856c-0.313-0.695-0.464-1.45-0.464-2.244c0-0.792,0.15-1.553,0.464-2.244
			c0.308-0.712,0.733-1.333,1.251-1.855c0.523-0.523,1.149-0.943,1.852-1.257c0.7-0.308,1.455-0.459,2.249-0.459
			c0.781,0,1.548,0.151,2.25,0.459c0.706,0.313,1.327,0.733,1.85,1.257c0.523,0.522,0.944,1.144,1.257,1.855
			c0.314,0.696,0.464,1.452,0.464,2.244C277.23,182.043,277.081,182.793,276.767,183.499z"/>
		<path fill="#040710" d="M295.238,181.255c0,0.788-0.157,1.538-0.465,2.244c-0.312,0.713-0.739,1.338-1.262,1.856
			c-0.519,0.518-1.139,0.944-1.85,1.257c-1.409,0.609-3.091,0.609-4.49,0c-0.711-0.308-1.331-0.739-1.854-1.257
			c-0.523-0.519-0.944-1.144-1.257-1.856c-0.313-0.695-0.464-1.45-0.464-2.244v-8.646h-2.832v8.646c0,1.219,0.231,2.357,0.68,3.41
			c0.447,1.046,1.062,1.958,1.828,2.729c0.771,0.771,1.688,1.387,2.736,1.834c1.045,0.442,2.193,0.674,3.408,0.674
			c1.166,0,2.287-0.231,3.328-0.674c1.025-0.442,1.953-1.058,2.741-1.828c0.788-0.772,1.43-1.684,1.882-2.73
			c0.465-1.058,0.696-2.196,0.696-3.415v-8.646h-2.826V181.255z"/>
		<path fill="#040710" d="M329.57,175.175c-0.794-0.787-1.716-1.417-2.741-1.877c-1.03-0.458-2.157-0.689-3.334-0.689
			c-1.209,0-2.363,0.231-3.409,0.689c-1.046,0.465-1.969,1.096-2.735,1.884c-0.767,0.792-1.387,1.709-1.828,2.745
			c-0.448,1.041-0.675,2.157-0.675,3.328v8.647h2.826v-8.647c0-0.792,0.157-1.553,0.459-2.244c0.318-0.712,0.738-1.333,1.263-1.855
			c0.523-0.523,1.138-0.943,1.855-1.257c1.402-0.621,3.086-0.621,4.488,0c0.712,0.313,1.339,0.733,1.855,1.257
			c0.528,0.522,0.95,1.144,1.258,1.855c0.301,0.691,0.468,1.452,0.468,2.244v8.647h2.823v-8.647c0-1.176-0.227-2.298-0.691-3.333
			C330.994,176.891,330.356,175.974,329.57,175.175z"/>
		<path fill="#040710" d="M347.642,175.11c-0.777-0.766-1.699-1.381-2.751-1.829c-1.058-0.453-2.196-0.673-3.388-0.673
			c-1.22,0-2.363,0.22-3.41,0.673c-1.046,0.443-1.963,1.063-2.734,1.829c-0.772,0.772-1.387,1.694-1.834,2.752
			c-0.448,1.062-0.675,2.206-0.675,3.393c0,1.219,0.227,2.357,0.675,3.41c0.447,1.046,1.062,1.963,1.834,2.729
			c0.771,0.771,1.688,1.392,2.734,1.834c1.052,0.448,2.201,0.674,3.41,0.674c0.938,0,1.866-0.155,2.745-0.469
			c0.868-0.308,1.662-0.724,2.39-1.258c0.718-0.522,1.359-1.164,1.899-1.893c0.54-0.734,0.961-1.549,1.257-2.416l0.281-0.815h-3.038
			l-0.155,0.388c-0.454,1.106-1.149,1.991-2.094,2.65c-0.95,0.646-2.051,0.98-3.285,0.98c-0.729,0-1.436-0.129-2.072-0.388
			c-0.657-0.265-1.252-0.626-1.779-1.074c-0.519-0.436-0.95-0.971-1.289-1.586c-0.232-0.426-0.406-0.874-0.535-1.348h14.318v-1.42
			c0-1.187-0.223-2.336-0.67-3.393C349.028,176.81,348.413,175.883,347.642,175.11z M335.827,179.836
			c0.129-0.463,0.303-0.906,0.541-1.337c0.333-0.621,0.765-1.155,1.283-1.602c0.527-0.448,1.127-0.804,1.779-1.068
			c1.257-0.508,2.795-0.534,4.128,0c0.662,0.265,1.272,0.62,1.79,1.068c0.508,0.441,0.943,0.98,1.289,1.602
			c0.222,0.426,0.399,0.874,0.529,1.337H335.827z"/>
		<path fill="#040710" d="M365.325,181.255c0,0.794-0.161,1.549-0.471,2.244c-0.312,0.713-0.731,1.338-1.25,1.856
			c-0.523,0.518-1.149,0.949-1.855,1.257c-1.396,0.609-3.092,0.609-4.489,0c-0.706-0.312-1.332-0.734-1.851-1.257
			c-0.522-0.523-0.949-1.144-1.262-1.856c-0.307-0.695-0.458-1.45-0.458-2.244v-8.646h-2.839v8.646c0,1.219,0.238,2.357,0.681,3.41
			c0.447,1.046,1.063,1.958,1.839,2.729c0.767,0.771,1.684,1.392,2.73,1.834c1.046,0.442,2.185,0.674,3.404,0.674
			c1.176,0,2.293-0.231,3.334-0.674c1.024-0.442,1.941-1.058,2.739-1.828c0.788-0.772,1.42-1.684,1.884-2.73
			c0.463-1.047,0.689-2.196,0.689-3.415v-8.646h-2.826V181.255z"/>
		<path fill="#040710" d="M382.141,180.656c0-0.346-0.276-0.614-0.616-0.614c-0.328,0-0.613,0.269-0.613,0.614
			c0,0.334,0.285,0.614,0.613,0.614C381.864,181.271,382.141,180.99,382.141,180.656z"/>
		<path fill="#040710" d="M383.338,181.255c0,0.788-0.167,1.538-0.469,2.244c-0.324,0.713-0.744,1.338-1.258,1.856
			c-0.517,0.518-1.148,0.944-1.86,1.257c-1.396,0.609-3.086,0.609-4.488,0c-0.707-0.308-1.333-0.739-1.852-1.257
			c-0.522-0.523-0.943-1.144-1.262-1.856c-0.302-0.695-0.458-1.45-0.458-2.244v-2.611h4.348v-2.82h-4.348v-5.627h-2.839v11.059
			c0,1.219,0.238,2.357,0.681,3.41c0.447,1.046,1.063,1.958,1.84,2.729c0.766,0.771,1.688,1.392,2.734,1.834
			c1.037,0.442,2.181,0.674,3.399,0.674c1.176,0,2.293-0.231,3.334-0.674c1.023-0.442,1.946-1.058,2.739-1.828
			c0.788-0.772,1.425-1.684,1.889-2.735c0.464-1.053,0.685-2.191,0.685-3.41v-0.609h-2.815V181.255z"/>
		<path fill="#040710" d="M401.589,175.105c-0.799-0.767-1.723-1.381-2.74-1.824c-1.043-0.453-2.158-0.673-3.335-0.673
			c-1.214,0-2.367,0.22-3.404,0.673c-1.047,0.443-1.969,1.058-2.734,1.829c-0.771,0.772-1.388,1.699-1.834,2.752
			c-0.448,1.062-0.675,2.206-0.675,3.393v8.647h2.831v-8.647c0-0.792,0.152-1.553,0.454-2.244c0.324-0.712,0.744-1.333,1.262-1.855
			c0.518-0.523,1.139-0.943,1.855-1.257c1.398-0.621,3.086-0.621,4.484,0c0.717,0.313,1.344,0.733,1.86,1.257
			c0.518,0.522,0.938,1.144,1.257,1.855c0.309,0.691,0.469,1.452,0.469,2.244v0.616h2.822v-0.616c0-1.187-0.231-2.336-0.689-3.399
			C403.013,176.799,402.38,175.878,401.589,175.105z"/>
		<path fill="#040710" d="M419.66,175.11c-0.777-0.766-1.694-1.381-2.751-1.829c-1.059-0.453-2.202-0.673-3.395-0.673
			c-1.213,0-2.362,0.22-3.403,0.673c-1.041,0.443-1.953,1.063-2.729,1.829c-0.777,0.772-1.391,1.699-1.834,2.752
			c-0.453,1.057-0.68,2.206-0.68,3.393c0,1.219,0.227,2.357,0.68,3.41c0.443,1.046,1.057,1.963,1.834,2.729
			c0.772,0.771,1.683,1.392,2.729,1.834c1.052,0.448,2.195,0.674,3.403,0.674c0.95,0,1.867-0.155,2.746-0.469
			c0.865-0.312,1.673-0.733,2.396-1.258c0.719-0.522,1.359-1.164,1.899-1.893c0.539-0.734,0.959-1.549,1.257-2.416l0.276-0.815
			h-3.039l-0.155,0.388c-0.437,1.106-1.149,1.991-2.094,2.65c-0.944,0.646-2.045,0.98-3.286,0.98c-0.727,0-1.429-0.129-2.07-0.388
			c-0.652-0.265-1.258-0.626-1.77-1.074c-0.523-0.436-0.955-0.971-1.295-1.586c-0.222-0.426-0.41-0.874-0.534-1.348h14.323v-1.42
			c0-1.187-0.231-2.33-0.675-3.393C421.046,176.81,420.432,175.883,419.66,175.11z M407.851,179.836
			c0.119-0.463,0.308-0.906,0.535-1.337c0.334-0.621,0.766-1.16,1.289-1.602c0.518-0.448,1.117-0.804,1.77-1.068
			c1.268-0.508,2.789-0.534,4.126,0c0.675,0.265,1.279,0.62,1.792,1.068c0.518,0.441,0.948,0.98,1.294,1.602
			c0.222,0.426,0.405,0.874,0.529,1.337H407.851z"/>
		<path fill="#040710" d="M214.373,159.865c5.842-3.032,10.627-7.029,14.381-11.986v16.54h8.266v-41.346
			c0-5.724-1.079-11.134-3.221-16.193c-2.153-5.076-5.066-9.457-8.757-13.152c-3.705-3.695-8.08-6.619-13.15-8.767
			c-5.072-2.143-10.478-3.227-16.202-3.227c-5.853,0-11.273,1.084-16.291,3.227c-5.012,2.147-9.376,5.071-13.054,8.767
			c-3.702,3.689-6.619,8.076-8.768,13.141c-1.865,4.395-2.917,9.042-3.165,13.932l-31.515-2.604
			c-0.54-7.95-7.167-14.262-15.253-14.262c-2.498,0-4.851,0.613-6.935,1.677L89.025,86.362c1.439-1.25,2.354-3.087,2.354-5.139
			c0-3.751-3.059-6.814-6.818-6.814s-6.809,3.063-6.809,6.814c0,3.759,3.049,6.812,6.809,6.812c0.884,0,1.727-0.174,2.502-0.481
			l11.686,19.252c-3.877,2.779-6.414,7.311-6.414,12.432c0,3.665,1.293,7.028,3.443,9.665l-28.911,31.883
			c-2.617-1.845-5.8-2.938-9.237-2.938c-8.863,0-16.075,7.212-16.075,16.077c0,8.863,7.212,16.075,16.075,16.075
			c8.864,0,16.082-7.212,16.082-16.075c0-3.774-1.316-7.241-3.503-9.987l28.972-31.944c2.426,1.615,5.335,2.561,8.464,2.561
			c7.221,0,13.276-5.031,14.878-11.778l31.891,2.633c0.25,4.963,1.301,9.61,3.164,13.952c2.148,5.022,5.065,9.371,8.768,13.065
			c3.678,3.69,8.042,6.614,13.054,8.768c5.018,2.146,10.438,3.226,16.291,3.226C202.299,164.419,208.524,162.897,214.373,159.865z
			 M84.562,85.744c-2.487,0-4.51-2.034-4.51-4.521c0-2.488,2.022-4.517,4.51-4.517c2.491,0,4.516,2.028,4.516,4.517
			C89.077,83.71,87.053,85.744,84.562,85.744z M57.63,185.415c-6.332,0-11.474-5.157-11.474-11.49c0-6.329,5.142-11.48,11.474-11.48
			c2.25,0,4.344,0.66,6.117,1.783c0.652,0.414,1.261,0.89,1.816,1.42c0.001,0.001,0.002,0.002,0.004,0.003
			c0.271,0.261,0.529,0.534,0.775,0.819c0.006,0.008,0.014,0.016,0.021,0.023c0.249,0.291,0.483,0.595,0.702,0.91
			c1.286,1.854,2.045,4.1,2.045,6.521C69.11,180.258,63.959,185.415,57.63,185.415z M107.645,129.963
			c-5.913,0-10.719-4.812-10.719-10.725c0-5.901,4.806-10.707,10.719-10.707c5.901,0,10.714,4.806,10.714,10.707
			C118.358,125.151,113.546,129.963,107.645,129.963z M172.375,146.384c-2.979-2.973-5.346-6.468-7.109-10.491
			c-1.765-4.025-2.65-8.293-2.65-12.819c0-4.515,0.886-8.792,2.65-12.812c1.764-4.018,4.131-7.521,7.109-10.503
			c2.973-2.973,6.475-5.342,10.498-7.109c4.025-1.754,8.291-2.646,12.816-2.646c4.517,0,8.788,0.892,12.808,2.646
			c4.029,1.768,7.526,4.137,10.499,7.109c2.982,2.982,5.352,6.485,7.114,10.503c1.764,4.02,2.644,8.297,2.644,12.812
			c0,4.526-0.88,8.794-2.644,12.819c-1.763,4.023-4.132,7.519-7.114,10.491c-2.973,2.979-6.47,5.356-10.499,7.116
			c-4.02,1.77-8.291,2.647-12.808,2.647c-4.525,0-8.791-0.878-12.816-2.647C178.85,151.74,175.348,149.362,172.375,146.384z"/>
	</g>
</g>
</svg>
