<?xml version="1.0" encoding="utf-8"?>
<!DOCTYPE svg PUBLIC "-//W3C//DTD SVG 1.1//EN" "http://www.w3.org/Graphics/SVG/1.1/DTD/svg11.dtd">
<svg version="1.1" id="Calque_1" xmlns="http://www.w3.org/2000/svg" xmlns:xlink="http://www.w3.org/1999/xlink" x="0px" y="0px"
	 width="250px" height="250px" viewBox="0 0 250 250" enable-background="new 0 0 250 250" xml:space="preserve">
<path fill="#040710" d="M211.09,98.81l-40.793-23.563V49.062c0-5.006-4.034-9.062-9.052-9.062c-5.006,0-9.062,4.057-9.062,9.062
	v27.63c-1.554,0-3.097,0.346-4.531,1.166l-36.22,20.939l-0.011,0.032l-22.656,13.066V96.198c0-5.016-4.057-9.073-9.052-9.073
	c-5.018,0-9.073,4.058-9.073,9.073v26.185L52.504,132.87v-15.741c0-4.984-4.045-9.052-9.041-9.052c-5.026,0-9.084,4.067-9.084,9.052
	v83.798c0,5.006,4.058,9.073,9.084,9.073c4.996,0,9.041-4.067,9.041-9.073v-47.126l18.137-10.487v36.682l0,0
	c0,5.008,4.056,9.063,9.073,9.063c4.995,0,9.052-4.056,9.052-9.063l0,0v-36.682l19.377,11.188c-1.565,2.729-1.716,6.172-0.044,9.062
	c1.685,2.913,4.726,4.531,7.855,4.531c1.532,0,3.107-0.389,4.531-1.209l45.313-26.184c0-0.012,0.01-0.022,0.032-0.032l45.259-26.174
	c2.784-1.608,4.531-4.607,4.531-7.833C215.621,103.427,213.895,100.428,211.09,98.81z M152.184,96.188v20.963l-18.126-10.486
	L152.184,96.188z M125.017,143.325l-27.209-15.709l18.136-10.497l27.209,15.729L125.017,143.325z M170.297,117.129V96.188
	l18.138,10.477L170.297,117.129z"/>
</svg>
