<?xml version="1.0" encoding="utf-8"?>
<!DOCTYPE svg PUBLIC "-//W3C//DTD SVG 1.1//EN" "http://www.w3.org/Graphics/SVG/1.1/DTD/svg11.dtd">
<svg version="1.1" id="Calque_1" xmlns="http://www.w3.org/2000/svg" xmlns:xlink="http://www.w3.org/1999/xlink" x="0px" y="0px"
	 width="350px" height="250px" viewBox="0 0 350 250" enable-background="new 0 0 350 250" xml:space="preserve">
<g>
	<path fill-rule="evenodd" clip-rule="evenodd" d="M37.595,144.942c0-13.561,0-27.122,0-40.682
		c0.696-7.336,2.239-13.717,4.893-19.293c6.528-13.712,19.236-21.615,36.487-24.324c3.623-0.568,7.376-0.559,11.604-0.559
		c48.628,0,96.987,0.14,145.53,0.14c15.844,0,34.24-1.336,46.133,2.516c12.03,3.897,20.355,12.303,25.304,23.207
		c2.669,5.882,4.269,12.253,4.753,19.571c0.225,3.375,0.03,6.167,0,9.367c-0.094,9.9,0,19.189,0,30.477
		c-0.001,7.417-1.876,14.329-4.474,19.851c-6.4,13.607-19.479,21.221-36.348,24.325c-3.593,0.661-7.57,0.419-11.743,0.419
		c-56.75,0-113.596,0-170.134,0c-8.405,0-15.668-0.462-21.669-2.517c-18.108-6.198-27.6-21.034-30.196-42.498
		C37.688,144.942,37.642,144.942,37.595,144.942z M260.014,128.166c0.001-9.11,0-18.732,0-27.68c0-4.843-0.35-9.61,0-13.979
		c0.163-2.043,1.277-7.413-1.817-6.151c-1.548,0.631-3.173,1.521-5.452,2.376c-1.822,0.684-4.899,0.882-4.894,2.937
		c0.006,1.999,3.117,2.114,3.775,4.054c0.362,1.072,0.553,5.214,0.419,6.851c-0.53,6.471-0.28,15.275-0.28,23.346
		c0,3.268,0,7.172,0,10.765c0,2.835,0.528,8.874-0.559,10.206c-0.855,1.047-3.72,0.598-4.753,1.258
		c-0.695,0.742-0.506,2.729,0.14,3.355c5.98,0.077,13.188,0.151,18.732,0c0.63-0.78,0.719-2.474,0.141-3.355
		c-1.366-0.499-3.367-0.361-4.614-0.979C259.433,137.456,260.014,132.801,260.014,128.166z M82.05,142.845
		c-0.822-0.765-0.698-3.765-0.698-6.29c0-7.474,0-14.201,0-21.25c0-9.616-0.614-19.499,0-27.819c0.091-1.236,0.682-3.94,0.14-4.754
		c-0.568-0.851-1.734-0.59-2.097-0.419c-1.102,0.52-3.225,1.373-5.033,2.097c-1.208,0.483-4.538,1.046-5.032,2.098
		c-1.319,2.802,3.049,3.251,3.634,5.173c0.466,1.528,0.141,4.138,0.141,6.29c0,11.321,0,21.116,0,32.574
		c0,2.521,0.612,11.076-0.7,12.302c-0.943,0.884-3.658,0.022-4.752,1.258c-0.73,0.825-0.417,2.204,0.279,3.216
		c5.66-0.034,13.363,0.099,18.593,0c0.646-0.49,0.8-2.425,0.28-3.216C85.671,143.229,83.09,143.813,82.05,142.845z M279.726,99.227
		c3.201-0.636,4.467-3.884,3.913-6.85c-1.014-5.442-9.615-5.041-10.624-0.279c-0.246,1.161,0.178,1.871,0,3.494
		C274.077,97.875,276.003,99.967,279.726,99.227z M140.626,145.502c6.606-0.918,10.874-5.778,13.28-10.904
		c2.158-4.595,3.661-10.271,2.656-16.636c-1.603-10.154-8.53-17.036-16.496-20.69c-2.44-1.12-5.179-2.159-7.828-2.657
		c-5.834-1.096-13.411-0.372-17.895,0.979c-12.955,3.906-22.774,15.396-23.905,30.617c-0.084,1.127-0.099,2.973,0,4.194
		c0.707,8.748,5.239,16.252,11.184,21.389c6.269,5.417,14.422,8.163,24.185,8.527c0.38,0.015,0.767,0.023,1.118,0
		c7.706-0.507,13.843-2.311,19.991-5.731c-0.631-1.146-0.927-2.776-2.097-3.075c-0.768-0.197-2.506,1.094-3.215,1.397
		c-3.509,1.503-7.729,2.621-11.883,2.937c-11.816,0.896-19.845-3.341-25.024-9.366c-4.146-4.824-7.042-11.526-6.291-20.551
		c1.242-14.911,8.979-25.737,22.228-28.1c10.302-1.838,19.234,2.584,24.326,7.688c3.444,3.454,6.498,8.427,7.408,14.399
		c1.06,6.945-1.784,14.198-5.032,17.755c-1.342,1.47-5.401,4.67-8.946,3.216c-2.502-1.026-0.695-6.086-0.141-8.389
		c1.816-7.537,3.931-13.646,5.312-21.11c-2.241-0.323-5.076-0.049-7.549-0.141c-0.508,0.472-0.342,1.616-0.839,2.098
		c-0.772-1.185-1.728-2.188-3.076-2.796c-2.401-0.738-5.113-0.791-7.409-0.14c-7.961,2.258-14.224,12.329-15.099,20.97
		c-0.935,9.238,4.397,16.252,12.862,13.42c3.002-1.004,5.204-3.204,7.549-4.892C131.386,143.627,135.381,146.229,140.626,145.502z
		 M169.843,105.797c-1.256,0.6-3.038,1.799-4.892,2.797c-1.935,1.041-3.991,1.896-4.753,2.936c-0.221,2.596,2.107,2.646,3.074,4.054
		c0.824,2.933,0.577,6.795,0.56,10.067c-0.052,9.698,0.134,22.322-0.279,34.25c2.219,0.11,5.559,0.302,8.108,0
		c0.415-4.151-0.136-9.27,0.279-13.42c3.717,0.142,8.023,0.196,11.044-0.56c9.875-2.472,17.708-10.66,16.636-23.347
		c-0.553-6.545-4.585-12.906-11.323-14.679c-3.461-0.909-8.193-0.192-10.765,0.699c-2.008,0.696-3.684,2.198-5.871,2.516
		C172.179,108.946,172.341,104.607,169.843,105.797z M214.858,106.916c-0.863-2.513-3.938,0.119-5.172,0.84
		c-1.053,0.614-2.162,1.224-3.076,1.678c-1.18,0.584-3.22,1.053-3.494,2.097c-0.648,2.462,1.874,2.434,2.935,4.194
		c1.143,1.895,0.56,6.907,0.56,10.345c0,3.64,0,7.585,0,10.904c0,10.735,0.449,19.119-0.699,26.562
		c-1.097,0.954-3.547,0.554-4.753,1.397c-0.556,1.005-0.295,2.785,0.419,3.356c6.669-0.259,13.195,0.169,19.712-0.141
		c0.557-0.791,0.799-2.336,0.14-3.216c-1.759-0.896-4.872-0.439-6.29-1.677c-0.95-4.56-0.676-11.799-0.28-16.775
		c15.101,1.533,24.145-5.27,27.261-16.637c1.925-11.498-3.155-20.265-11.603-22.088c-6.17-1.331-11.318,1.62-15.938,3.494
		C214.114,109.843,215.198,107.904,214.858,106.916z M280.704,106.776c-1.218,0.758-3.016,1.465-5.033,2.378
		c-1.57,0.71-4.399,1.507-4.474,3.074c-0.086,1.814,2.378,2.255,3.076,3.496c1.062,1.888,0.419,5.429,0.419,8.527
		c0,3.17-0.112,5.938,0.14,8.807c2.295,0.282,5.408,0.446,7.828,0.14c-0.027-8.915,0.604-18.469,0.28-26.422
		C282.429,106.237,281.047,106.563,280.704,106.776z"/>
	<path fill-rule="evenodd" clip-rule="evenodd" d="M184.243,114.186c4.342,2.968,7.332,7.259,6.57,14.82
		c-0.608,6.034-3.511,11.976-8.248,12.86c-4.635,0.866-9.599-1.047-10.625-4.474c-0.738-2.464-0.14-6.305-0.14-9.646
		c0-4.449-0.692-9.343,0.699-11.744C174.133,113.185,180.477,112.701,184.243,114.186z"/>
	<path fill-rule="evenodd" clip-rule="evenodd" d="M214.999,138.231c0.022-0.627-0.113-1.098-0.42-1.397
		c0.47-5.785-0.626-12.995,0-18.314c0.087-0.745,0.373-1.756,0.699-2.377c1.487-2.83,8.242-3.405,11.603-1.957
		c9.962,4.293,8.38,24.855-0.838,27.541C221.397,143.08,216.999,141.115,214.999,138.231z"/>
	<path fill-rule="evenodd" clip-rule="evenodd" d="M133.217,117.541c0.007,1.88,0.259,3.355,0,5.173
		c-0.912,6.379-3.361,13.083-7.41,16.357c-3.542,2.865-8.329,0.197-8.667-4.473c-0.053-0.731-0.055-2.039,0-2.937
		c0.439-7.231,6.218-16.044,12.303-16.497C131.683,114.999,132.361,116.042,133.217,117.541z"/>
</g>
</svg>
