<?xml version="1.0" encoding="utf-8"?>
<!DOCTYPE svg PUBLIC "-//W3C//DTD SVG 1.1//EN" "http://www.w3.org/Graphics/SVG/1.1/DTD/svg11.dtd">
<svg version="1.1" id="Calque_1" xmlns="http://www.w3.org/2000/svg" xmlns:xlink="http://www.w3.org/1999/xlink" x="0px" y="0px"
	 width="500px" height="250px" viewBox="0 0 500 250" enable-background="new 0 0 500 250" xml:space="preserve">
<g>
	<path id="path688_3_" fill="#040710" d="M92.012,138.396c1.347-3.109,2.025-6.625,2.025-10.461c0-5.919-1.631-11.056-4.849-15.259
		c-3.265-4.253-7.934-7.755-13.88-10.413l-4.691-2.108c-4.074-1.834-7.136-3.513-9.127-5.026c-2.107-1.633-3.166-3.718-3.166-6.255
		c0-2.203,0.821-3.919,2.466-5.087c1.561-1.119,3.249-1.704,5.052-1.704c2.155,0,4.118,0.453,5.822,1.335
		c1.573,0.811,3.371,2.42,5.443,4.873l12.354-13.033c-3.491-3.92-7.101-6.61-10.733-8.019c-3.8-1.476-8.137-2.24-12.887-2.24
		c-3.361,0-6.636,0.608-9.77,1.741c-3.136,1.154-5.909,2.835-8.294,5.003c-2.393,2.132-4.335,4.765-5.766,7.802
		c-1.441,3.015-2.165,6.398-2.165,10.066c0,5.768,1.713,10.995,5.133,15.595c3.396,4.598,8.443,8.435,14.964,11.328l4.941,2.229
		c3.824,1.679,6.48,3.242,8.102,4.741c1.728,1.608,2.572,3.489,2.572,5.671c0,3.193-1.584,7.006-9.111,7.006
		c-3.192,0-6.34-1.109-9.389-3.277c-2.753-1.988-5.099-4.418-6.979-7.241l-13.868,11.342c2.944,5.276,7.03,9.337,12.15,12.042
		c5.313,2.823,11.508,4.254,18.441,4.254c3.954,0,7.614-0.607,10.947-1.822c3.325-1.181,6.218-2.906,8.602-5.099
		S90.656,141.506,92.012,138.396"/>
	<path id="path692_3_" fill="#040710" d="M165.515,142.197V76.104H147.17v24.229h-24.575V76.104h-18.36v66.093h18.36v-24.232h24.575
		v24.232H165.515z"/>
	<path id="path704_3_" fill="#040710" d="M321.619,125.971c2.312-5.183,3.467-10.863,3.467-16.82c0-5.897-1.154-11.532-3.467-16.772
		c-2.285-5.243-5.432-9.877-9.338-13.75c-3.92-3.882-8.604-6.967-13.939-9.242c-5.326-2.252-11.09-3.385-17.166-3.385h-30.033
		v86.311h30.033c6.076,0,11.84-1.156,17.166-3.41c5.336-2.26,10.008-5.371,13.939-9.241
		C316.176,135.787,319.334,131.176,321.619,125.971 M304.774,119.407c-1.213,3.216-2.965,6.053-5.205,8.458
		c-2.227,2.404-4.906,4.336-8.006,5.73c-3.096,1.381-6.586,2.084-10.387,2.084h-11.688V82.596h11.688
		c3.801,0,7.291,0.727,10.387,2.109c3.074,1.395,5.779,3.324,8.006,5.718c2.24,2.419,3.992,5.254,5.205,8.446
		c1.23,3.215,1.85,6.659,1.85,10.281C306.621,112.76,306.002,116.203,304.774,119.407"/>
	<path id="path708_3_" fill="#040710" d="M400.985,123.063c1.502-3.432,2.418-7.111,2.703-10.924l0.133-1.703v-1.68
		c-0.084-4.657-1.035-9.138-2.836-13.271c-1.885-4.313-4.443-8.101-7.658-11.318c-3.195-3.203-7.02-5.776-11.365-7.647
		c-4.359-1.883-9.078-2.835-13.998-2.835c-4.945,0-9.662,0.952-14.01,2.835c-4.359,1.871-8.172,4.444-11.375,7.647
		c-3.221,3.207-5.791,7.005-7.662,11.318c-1.871,4.289-2.824,8.934-2.824,13.77c0,4.862,0.953,9.508,2.824,13.808
		c1.883,4.302,4.441,8.101,7.662,11.307c3.203,3.192,7.016,5.765,11.375,7.647c4.348,1.869,9.062,2.824,14.01,2.824
		c4.92,0,9.627-0.955,13.998-2.824c4.348-1.883,8.17-4.455,11.365-7.647C396.539,131.164,399.1,127.352,400.985,123.063
		 M379.588,121.979c-3.051,3.275-6.98,4.934-11.627,4.934c-4.693,0-8.602-1.658-11.674-4.934c-3.016-3.253-4.562-7.541-4.562-12.724
		c0-5.156,1.547-9.458,4.562-12.711c3.072-3.262,6.98-4.931,11.674-4.931c4.646,0,8.576,1.669,11.627,4.931
		c3.037,3.29,4.574,7.555,4.574,12.711C384.162,114.438,382.625,118.727,379.588,121.979"/>
	<path id="path712_3_" fill="#040710" d="M441.248,152.311h22.646l-34.152-42.769l30.305-43.541h-20.99l-31.113,44.626
		L441.248,152.311z"/>
	<path id="path716_3_" fill="#040710" d="M238.1,151.941l-0.298-86.178l-61.554,48.712v21.882l14.892-12.329l29.983,14.524
		l-0.238,13.389H238.1L238.1,151.941z M220.97,122.195l-16.931-8.172l17.502-14.583L220.97,122.195z"/>
	<path id="path720_3_" fill="#040710" d="M36.106,169.846h8.827v2.133h-6.506v3.967h5.768v2.133h-5.768v5.824h-2.321V169.846z"/>
	<path id="path724_3_" fill="#040710" d="M63.375,169.07l2.073,0.848L65.067,185l-2.274-0.904l0.144-3.517l-5.101-2.013
		l-2.286,2.656l-2.192-0.871L63.375,169.07z M63.017,178.389l0.216-5.992l-3.944,4.5L63.017,178.389z"/>
	<path id="path736_3_" fill="#040710" d="M79.469,169.846h5.026c1.527,0,2.822,0.405,3.609,1.203
		c0.632,0.62,0.941,1.395,0.941,2.357v0.072c0,1.717-0.99,2.621-2.061,3.17c1.548,0.537,2.667,1.453,2.667,3.334v0.084
		c0,2.479-2.013,3.836-5.015,3.836H79.48v-14.057H79.469L79.469,169.846z M86.724,173.789c0-1.182-0.869-1.848-2.371-1.848H81.77
		v3.896h2.429c1.524,0,2.525-0.715,2.525-2.014V173.789z M84.594,177.791H81.77v4.016h2.931c1.604,0,2.617-0.691,2.617-1.988v-0.025
		C87.318,178.566,86.378,177.791,84.594,177.791"/>
	<path id="path740_3_" fill="#040710" d="M101.328,169.846h5.089c1.621,0,2.93,0.465,3.774,1.311
		c0.737,0.752,1.156,1.812,1.156,3.086v0.084c0,2.18-1.203,3.55-2.919,4.135l3.322,5.441h-2.667l-3.015-4.989
		c-0.034,0.034-0.096,0.034-0.133,0.034h-2.274v4.955h-2.32v-14.057H101.328z M106.189,176.852c1.801,0,2.812-0.967,2.812-2.443
		v-0.033c0-1.586-1.037-2.408-2.774-2.408h-2.575v4.885H106.189L106.189,176.852z"/>
	<path id="path742_3_" fill="#040710" d="M123.368,183.902h2.335v-14.057h-2.335V183.902z"/>
	<path id="path754_3_" fill="#040710" d="M149.004,184.318l-1.503-1.381c-1.021,0.738-2.236,1.19-3.569,1.19
		c-3.683,0-6.231-2.967-6.231-7.138v-0.2c0-4.183,2.585-7.172,6.24-7.172c3.671,0,6.208,2.954,6.208,7.125v0.213
		c0,1.739-0.478,3.267-1.251,4.444l1.524,1.347L149.004,184.318z M145.907,181.426l-2.109-1.869l1.455-1.562l1.939,1.883
		c0.356-0.785,0.549-1.762,0.549-2.896v-0.188c0-3.015-1.619-5.026-3.837-5.026c-2.217,0-3.8,1.967-3.8,5.004v0.188
		c0,3.099,1.645,5.026,3.884,5.026C144.716,181.982,145.359,181.807,145.907,181.426"/>
	<path id="path758_3_" fill="#040710" d="M161.893,178.529v-8.684h2.349v8.672c0,2.274,1.096,3.453,2.919,3.453
		c1.762,0,2.896-1.117,2.896-3.369v-8.756h2.321v8.613c0,3.786-2.071,5.669-5.252,5.669
		C163.979,184.129,161.893,182.225,161.893,178.529"/>
	<path id="path762_3_" fill="#040710" d="M184.598,169.846h8.887v2.098h-6.551v3.824h5.812v2.107h-5.812v3.919h6.658v2.108h-8.994
		V169.846z"/>
	<path id="path774_3_" fill="#040710" d="M219.934,169.846h4.3c4.038,0,6.684,2.786,6.684,6.922v0.178
		c0,4.123-2.646,6.957-6.684,6.957h-4.3V169.846z M222.268,171.941v9.853h1.943c2.571,0,4.286-1.823,4.286-4.837v-0.13
		c0-3.038-1.715-4.886-4.286-4.886H222.268L222.268,171.941z"/>
	<path id="path778_3_" fill="#040710" d="M242.627,178.529v-8.684h2.348v8.672c0,2.274,1.106,3.453,2.919,3.453
		c1.75,0,2.896-1.117,2.896-3.369v-8.756h2.299v8.613c0,3.786-2.062,5.669-5.255,5.669
		C244.712,184.129,242.627,182.225,242.627,178.529"/>
	<path id="path782_3_" fill="#040710" d="M279.877,169.846h2.168l6.195,9.375v-9.375h2.287v14.057h-1.99l-6.373-9.66v9.66h-2.287
		V169.846L279.877,169.846z"/>
	<path id="path794_3_" fill="#040710" d="M302.74,178.529v-8.684h2.344v8.672c0,2.274,1.109,3.453,2.918,3.453
		c1.764,0,2.896-1.117,2.896-3.369v-8.756h2.312v8.613c0,3.786-2.076,5.669-5.256,5.669
		C304.824,184.129,302.74,182.225,302.74,178.529"/>
	<path id="path798_3_" fill="#040710" d="M325.469,169.846h2.43l3.621,6.457l3.609-6.457h2.455v14.057h-2.336v-9.946l-3.717,6.528
		h-0.072l-3.729-6.479v9.897h-2.262V169.846L325.469,169.846z"/>
	<path id="path802_3_" fill="#040710" d="M349.961,169.846h8.877v2.098h-6.553v3.824h5.814v2.107h-5.814v3.919h6.668v2.108h-8.992
		V169.846z M355.535,165.997l2.049,0.954l-2.346,1.846h-1.764L355.535,165.997z"/>
	<path id="path814_3_" fill="#040710" d="M370.74,169.846h5.084c1.619,0,2.943,0.465,3.766,1.311c0.75,0.752,1.18,1.812,1.18,3.086
		v0.084c0,2.18-1.217,3.55-2.92,4.135l3.301,5.441h-2.68l-3.004-4.989c-0.023,0.034-0.092,0.034-0.141,0.034h-2.229v4.955h-2.357
		V169.846z M375.586,176.852c1.811,0,2.834-0.967,2.834-2.443v-0.033c0-1.586-1.037-2.408-2.799-2.408h-2.523v4.885H375.586
		L375.586,176.852z"/>
	<path id="path816_3_" fill="#040710" d="M392.787,183.902h2.334v-14.057h-2.334V183.902z"/>
	<path id="path828_3_" fill="#040710" d="M418.389,184.318l-1.488-1.381c-1.004,0.738-2.238,1.19-3.584,1.19
		c-3.66,0-6.232-2.967-6.232-7.138v-0.2c0-4.183,2.586-7.172,6.266-7.172c3.635,0,6.205,2.954,6.205,7.125v0.213
		c0,1.739-0.475,3.267-1.262,4.444l1.537,1.347L418.389,184.318z M415.301,181.426l-2.084-1.869l1.406-1.562l1.967,1.883
		c0.355-0.785,0.549-1.762,0.549-2.896v-0.188c0-3.015-1.598-5.026-3.822-5.026c-2.23,0-3.814,1.967-3.814,5.004v0.188
		c0,3.099,1.631,5.026,3.873,5.026C414.098,181.982,414.768,181.807,415.301,181.426"/>
	<path id="path832_3_" fill="#040710" d="M431.303,178.529v-8.684h2.336v8.672c0,2.274,1.119,3.453,2.916,3.453
		c1.787,0,2.906-1.117,2.906-3.369v-8.756h2.311v8.613c0,3.786-2.061,5.669-5.252,5.669
		C433.387,184.129,431.303,182.225,431.303,178.529"/>
	<path id="path836_3_" fill="#040710" d="M454.018,169.846h8.875v2.098h-6.572v3.824h5.822v2.107h-5.822v3.919h6.67v2.108h-8.973
		V169.846z"/>
</g>
</svg>
