<?xml version="1.0" encoding="utf-8"?>
<!DOCTYPE svg PUBLIC "-//W3C//DTD SVG 1.1//EN" "http://www.w3.org/Graphics/SVG/1.1/DTD/svg11.dtd">
<svg version="1.1" id="Calque_1" xmlns="http://www.w3.org/2000/svg" xmlns:xlink="http://www.w3.org/1999/xlink" x="0px" y="0px"
	 width="620px" height="250px" viewBox="0 0 620 250" enable-background="new 0 0 620 250" xml:space="preserve">
<g>
	<g>
		<path fill="#040710" d="M80.783,92.554c-2.367-3.332-6.584-4.91-10.881-4.91c-5.095,0-10.188,2.28-10.188,7.987
			c0,12.465,29.505,5.354,29.505,27.477c0,13.34-10.54,19.837-22.744,19.837c-7.725,0-15.268-2.371-20.361-8.426l8.34-8.075
			c2.717,4.125,7.381,6.492,12.292,6.492c5.086,0,10.89-2.81,10.89-8.514c0-13.604-29.504-5.791-29.504-28.001
			c0-12.819,11.416-18.79,22.911-18.79c6.497,0,12.994,1.842,17.817,6.409L80.783,92.554z"/>
	</g>
	<g>
		<path fill="#040710" d="M89.353,108.188v-8.961h8.697V85.068h10.531v14.158h11.591v8.961h-11.591v18.431
			c0,4.217,1.228,6.848,5.875,6.848c1.85,0,4.393-0.351,5.716-1.315v8.865c-2.2,1.053-5.884,1.403-8.347,1.403
			c-11.152,0-13.783-4.999-13.783-14.92v-19.312H89.353z"/>
	</g>
	<g>
		<path fill="#040710" d="M126.223,99.227h10.539v6.673h0.176c2.28-4.823,6.935-7.725,12.468-7.725c1.314,0,2.551,0.263,3.771,0.622
			v10.176c-1.754-0.435-3.42-0.785-5.086-0.785c-9.925,0-11.328,8.338-11.328,10.618v22.561h-10.531L126.223,99.227L126.223,99.227z
			"/>
	</g>
	<g>
		<path fill="#040710" d="M194.806,133.638c0,2.978,0.47,4.812,2.207,4.812c2.305,0,3.357-2.887,3.357-5.39h1.729
			c0,5.676-4.034,9.427-10.284,9.427c-4.328,0-7.884-2.021-9.613-6.062c-2.504,4.616-9.137,6.062-12.891,6.062
			c-7.398,0-14.9-3.368-14.9-11.734c0-10.001,9.52-12.305,18.271-12.982l9.432-0.766v-8.083c0-5.769-0.965-9.323-8.172-9.323
			c-3.276,0-8.849,0.769-8.761,2.881c0.104,1.635,4.911,1.348,4.911,5.964c0,3.364-2.217,5.771-5.868,5.771
			c-4.337,0-6.257-2.886-6.257-6.254c0-5.385,7.031-10.097,16.637-10.097c9.917,0,20.201,2.695,20.201,13.656V133.638
			L194.806,133.638z M182.107,118.734l-7.598,0.77c-6.258,0.669-6.832,4.037-6.832,9.131c0,5.003,0.287,10.966,6.832,10.966
			c4.52,0,7.397-4.615,7.598-9.714V118.734z"/>
	</g>
	<g>
		<path fill="#040710" d="M231.428,110.906c-2.017-2.807-4.646-4.302-8.25-4.302c-2.807,0-6.14,1.32-6.14,4.477
			c0,7.554,22.729,1.403,22.729,17.825c0,10.005-9.566,13.513-18.168,13.513c-6.505,0-12.117-1.662-16.422-6.489l7.031-6.585
			c2.719,2.981,5.532,5.182,10.013,5.182c3.069,0,7.015-1.498,7.015-4.831c0-8.697-22.735-1.846-22.735-17.904
			c0-9.399,8.427-13.616,16.94-13.616c5.621,0,11.591,1.762,15.012,6.417L231.428,110.906z"/>
	</g>
	<g>
		<path fill="#040710" d="M245.3,75h10.531v29.584h0.263c2.192-2.719,6.409-6.409,14.31-6.409c12.029,0,20.359,9.662,20.359,22.122
			c0,12.468-7.812,22.122-20.807,22.122c-5.875,0-11.407-2.28-14.484-7.375h-0.168v6.322H245.3V75z M267.853,107.661
			c-7.717,0-12.373,6.055-12.373,12.636c0,6.584,4.656,12.644,12.373,12.644c7.732,0,12.381-6.06,12.381-12.644
			C280.234,113.716,275.585,107.661,267.853,107.661"/>
	</g>
	<g>
		<path fill="#040710" d="M319.217,98.175c12.73,0,22.918,8.872,22.918,22.122c0,13.257-10.188,22.122-22.918,22.122
			c-12.732,0-22.913-8.865-22.913-22.122C296.304,107.047,306.485,98.175,319.217,98.175 M319.217,132.94
			c7.732,0,12.379-6.06,12.379-12.644c0-6.581-4.654-12.636-12.379-12.636c-7.717,0-12.374,6.055-12.374,12.636
			C306.843,126.881,311.5,132.94,319.217,132.94"/>
	</g>
	<g>
		<path fill="#040710" d="M386.475,141.366h-9.996v-6.76h-0.176c-1.938,4.209-5.883,7.812-12.906,7.812
			c-11.328,0-15.361-7.988-15.361-16.594V99.227h10.531v21.333c0,4.656,0.35,12.381,7.725,12.381c6.928,0,9.652-5.091,9.652-10.711
			V99.227h10.531V141.366z"/>
	</g>
	<g>
		<path fill="#040710" d="M393.586,99.227h10.539v6.673h0.168c2.287-4.823,6.943-7.725,12.477-7.725c1.314,0,2.543,0.263,3.77,0.622
			v10.176c-1.754-0.435-3.428-0.785-5.086-0.785c-9.926,0-11.328,8.338-11.328,10.618v22.561h-10.539V99.227z"/>
	</g>
	<g>
		<path fill="#040710" d="M451.334,136.24c10.699-0.22,15.938,4.592,15.938,15.179c0,13.321-9.941,23.581-25.104,23.581
			c-12.127,0-21.629-6.219-21.629-14.302c0-5.237,5.014-9.606,9.398-10.811v-0.215c-4.592-1.315-7.104-5.46-7.104-10.921
			c0-9.061,6.666-12.006,10.932-12.556v-0.216c-5.789-2.623-9.072-7.313-9.072-13.321c0-9.933,9.828-15.936,18.996-15.936
			c6.115,0,10.482,1.634,13.648,3.926c2.072-2.399,4.807-4.799,8.41-4.799c3.277,0,7.422,1.965,7.422,5.784
			c0,2.949-1.953,5.564-5.461,5.564c-3.275,0-5.014-2.508-5.014-5.02c0-2.18,0.654-3.603,2.941-4.802v-0.225
			c-4.258,0.543-5.238,2.954-7.199,4.919c3.053,2.619,4.688,7.534,4.688,11.025c0,10.371-10.045,15.721-19.436,15.721
			c-1.746,0-3.164-0.215-4.48-0.653c-1.195-0.327-2.391-0.653-3.604-0.653c-4.152,0-8.84,2.949-8.84,5.676
			c0,2.941,3.707,3.053,6.441,3.053H451.334L451.334,136.24z M431.684,150c-2.949,3.165-4.592,6.338-4.592,11.137
			c0.225,5.238,5.572,11.902,15.402,11.902c11.018,0,20.855-7.426,20.855-15.395c0-6.664-3.611-7.645-14.533-7.645H431.684z
			 M450.682,112.659c-0.113-12.552-1.754-13.975-6.881-13.975c-5.684,0-6.664,4.8-6.664,13.651c0,13.099,2.297,14.521,6.664,14.521
			C447.732,126.857,450.568,126.084,450.682,112.659"/>
	</g>
	<g>
		<path fill="#B1B3B4" d="M510.352,98.19c-12.445,0-21.621,9.088-21.621,22.153c0,12.254,8.084,22.154,21.342,22.154
			c7.859,0,13.799-2.336,18.75-8.725l-5.326-4.149c-3.309,4.241-7.389,6.401-13.424,6.401c-7.66,0-13.242-6.219-13.783-13.528
			h34.064v-2.24C530.354,106.29,522.244,98.19,510.352,98.19 M496.297,116.565c0.9-7.127,6.035-11.902,13.783-11.902
			c7.758,0,12.445,4.775,12.707,11.902H496.297z M573.512,99.267h-7.014v20.543c0,9.639-3.971,16.216-13.066,16.216
			c-6.568,0-9.639-4.416-9.639-11.44V99.267h-7.023v26.036c0,10.181,4.951,17.195,16.039,17.195c6.93,0,12.158-3.866,14.055-8.004
			h0.176c0,2.34,0.184,4.681,0.184,6.924h6.664c0-2.786-0.375-6.114-0.375-9.988V99.267z M478.385,131.162
			c-2.982,0-5.406,2.424-5.406,5.397c0,2.966,2.615,5.401,5.406,5.401c2.781,0,5.387-2.436,5.387-5.401
			C483.781,133.586,481.35,131.162,478.385,131.162"/>
	</g>
	<g>
		<g>
			<path fill="#040710" d="M161.833,155.182c-1.291-1.49-2.798-2.057-4.561-2.057c-4.001,0-6.855,2.719-6.855,6.884
				c0,4.065,2.854,6.788,6.855,6.788c1.914,0,3.676-0.701,4.848-2.319l-1.905-1.355c-0.86,1.1-1.874,1.578-2.918,1.578
				c-2.687,0-4.464-2.057-4.464-4.831c0-2.595,1.777-4.651,4.464-4.651c0.901,0,1.778,0.275,2.734,1.288L161.833,155.182z
				 M164.824,160.009c0,4.065,2.861,6.788,6.863,6.788c4.058-0.072,6.92-2.798,6.92-6.855c0-4.17-2.862-6.889-6.92-6.816
				C167.685,153.125,164.824,155.844,164.824,160.009 M167.247,159.869c0-2.595,1.778-4.651,4.464-4.651
				c2.695,0,4.48,2.057,4.48,4.651c0,2.774-1.785,4.831-4.48,4.831C169.025,164.7,167.247,162.644,167.247,159.869 M182.705,166.462
				h2.199V155.66h0.04l3.947,10.802h1.609l3.954-10.802h0.04v10.802h2.209v-13.01h-3.493l-3.498,9.111l-3.477-9.111h-3.523v13.01
				H182.705z M201.542,166.462h2.199V155.66h0.04l3.946,10.802h1.61l3.946-10.802h0.04v10.802h2.208v-13.01h-3.492l-3.508,9.111
				l-3.467-9.111h-3.523V166.462z M230.728,153.452h-2.312v8.154c0,1.288-0.693,2.981-2.918,2.981s-2.926-1.693-2.926-2.981v-8.154
				h-2.312v8.235c0,3.141,2.265,5.109,5.237,5.109c2.966,0,5.23-1.969,5.23-5.109V153.452L230.728,153.452z M235.416,166.462h2.311
				v-9.973h0.033l6.425,9.973h2.941v-13.01h-2.312v9.67l-0.041,0.031h0.041l-0.041-0.031l-6.297-9.67h-3.061V166.462z
				 M250.41,166.462H253l1.172-2.974h5.637l1.212,2.974h2.646l-5.596-13.01h-2.002L250.41,166.462z M254.962,161.504l2.041-5.294
				l2,5.294H254.962z M277.355,153.452h-2.312v8.154c0,1.288-0.693,2.981-2.918,2.981c-2.216,0-2.917-1.693-2.917-2.981v-8.154
				h-2.312v8.235c0,3.141,2.256,5.109,5.229,5.109s5.229-1.969,5.229-5.109V153.452z M284.705,166.462h2.312v-10.913h3.986v-2.097
				h-10.284v2.097h3.985V166.462z M297.724,152.566h1.721l2.592-2.643h-2.496L297.724,152.566z M294.416,166.462h8.936v-2.097
				h-6.625v-3.523h5.972v-2.097h-5.972v-3.196h6.299v-2.097h-8.609V166.462z"/>
		</g>
		<g>
			<g>
				<path fill="#040710" d="M325.234,153.452h-2.312v8.154c0,1.288-0.693,2.981-2.916,2.981c-2.225,0-2.926-1.693-2.926-2.981
					v-8.154h-2.312v8.235c0,3.141,2.264,5.109,5.238,5.109c2.973,0,5.229-1.969,5.229-5.109V153.452L325.234,153.452z
					 M329.914,166.462h2.312v-5.517h1.689l3.006,5.517h2.797l-3.459-5.747c1.938-0.28,3.014-1.658,3.014-3.532
					c0-2.917-2.352-3.73-4.848-3.73h-4.512V166.462L329.914,166.462z M332.234,158.965v-3.527h1.992
					c1.195,0,2.631,0.183,2.631,1.729c0,1.69-1.523,1.799-2.83,1.799H332.234z M343.314,166.462h4.68
					c2.465,0,4.928-0.881,4.928-3.706c0-1.675-1.182-2.963-2.807-3.149v-0.032c1.34-0.406,2.256-1.379,2.256-2.851
					c0-2.366-2.025-3.271-3.979-3.271h-5.07L343.314,166.462L343.314,166.462z M345.627,155.438h1.914
					c1.746,0,2.51,0.557,2.51,1.674c0,0.977-0.764,1.634-2.303,1.634h-2.121V155.438z M345.627,160.73h2.225
					c1.873,0,2.758,0.475,2.758,1.833c0,1.715-1.658,1.914-2.846,1.914h-2.137V160.73L345.627,160.73z M355.592,166.462h2.6
					l1.172-2.974H365l1.211,2.974h2.639l-5.596-13.01h-2.002L355.592,166.462z M360.152,161.504l2.033-5.294l1.992,5.294H360.152z
					 M372.086,166.462h2.311v-13.01h-2.311V166.462z M379.078,166.462h2.311v-9.973h0.039l6.426,9.973h2.934v-13.01h-2.311v9.67
					l-0.033,0.031h0.033l-0.033-0.031l-6.297-9.67h-3.068V166.462z M395.523,166.462h8.936v-2.097h-6.625v-3.523h5.965v-2.097
					h-5.965v-3.196h6.299v-2.097h-8.609V166.462z"/>
			</g>
			<g>
				<g>
					<path fill="#040710" d="M136.978,162.588l3.116-4.819h-2.479l-2.024,3.297l-3.181-3.32c1.609-0.842,3.34-2.108,3.34-4.142
						c0-2.424-1.914-3.631-4.161-3.631c-2.304,0-4.297,1.318-4.297,3.774c0,1.57,0.86,2.631,1.881,3.73
						c-1.953,0.925-3.659,2.364-3.659,4.607c0,2.344,1.635,4.664,5.27,4.664c2.161,0,3.572-0.908,4.936-2.543l1.977,2.137h2.934
						L136.978,162.588z M133.566,153.604c0,1.459-1.388,2.231-2.504,2.846c-0.701-0.705-1.594-1.618-1.594-2.678
						c0-1.212,0.98-1.891,2.145-1.891C132.744,151.881,133.566,152.543,133.566,153.604 M134.498,162.795
						c-0.845,0.996-2,2.049-3.57,2.049c-1.547,0-3.021-1.252-3.021-2.822c0-1.658,1.41-2.523,2.701-3.276L134.498,162.795z"/>
				</g>
			</g>
		</g>
	</g>
</g>
</svg>
